<?xml version="1.0" encoding="utf-8"?>
<!-- Generator: Adobe Illustrator 15.0.2, SVG Export Plug-In . SVG Version: 6.00 Build 0)  -->
<!DOCTYPE svg PUBLIC "-//W3C//DTD SVG 1.1//EN" "http://www.w3.org/Graphics/SVG/1.1/DTD/svg11.dtd">
<svg version="1.1" xmlns="http://www.w3.org/2000/svg" xmlns:xlink="http://www.w3.org/1999/xlink" x="0px" y="0px" width="1350px"
	 height="740px" viewBox="0 0 1350 740" enable-background="new 0 0 1350 740" xml:space="preserve">
<g id="Layer_1">
	<polyline fill="#F6B352" points="284.378,-0.724 328.32,287.903 1350,492.39 1350,615.114 296.642,307.196 147.953,-0.635 	"/>
	<polyline fill="#F68657" points="147.913,-0.783 296.642,307.122 1350,615.114 1350,729.626 260.089,307.196 44.385,-0.635 	"/>
	<polygon fill="#383A3F" points="260.04,307.196 44.406,-0.635 -4.158,-0.677 -4.158,47.143 235.641,307.036 1089.888,742.364 
		1349.842,742.364 1349.842,729.626 	"/>
	<polygon fill="#1F2124" points="235.732,307.036 -4.158,47.029 -4.158,175.482 201.524,307.036 874.468,742.364 1089.888,742.364 	
		"/>
	<polygon fill="#1F2124" points="-4.158,163.87 -4.158,255.616 146.293,320.272 699.729,743.187 888.779,743.187 	"/>
</g>
<g id="Layer_2">
	<path fill="#937452" d="M149.711,500.419v-5.123l-13.51-24.906c0,0-25.199-36.638-20.047-49.811
		c5.151-13.172,15.066-48.577,60.332-42.401l30.034,13.175l8.589,14.407l3.348,7.409c0,0,11.114,12.557,11.526,25.009
		c0,0,26.348,38.388-5.763,44.769c0,0,4.528,2.675,1.646,5.969c0,0,0,3.294,0,6.381c0,3.088,1.439,3.088,1.439,3.088l-33.549,15.644
		l-41.428-13.608"/>
	<polygon fill="#5E3B22" points="135.678,438.178 131.596,442.81 125.916,447.132 128.37,449.062 131.596,449.062 135.678,449.062 
		135.678,445.744 135.678,441.574 136.951,439.722 	"/>
	<path fill="#3B3631" d="M131.596,433.341l-5.929-6.924v-9.954v-3.294l5.929-7.822l4.082-6.585v-4.939v-2.47v-3.495l-15.734,19.55
		l-3.789,22.934l3.789,11.119l4.066,10.611C124.01,452.071,116.365,429.636,131.596,433.341z"/>
	<polygon fill="#B47A6D" points="188.406,439.928 203.638,419.964 220.105,419.964 227.307,442.81 227.874,449.062 205.696,449.062 
			"/>
	<polygon fill="#111414" points="165.354,409.877 173.176,403.663 177.808,400.36 181.82,400.36 183.878,403.663 177.808,405.118 
		168.646,409.877 	"/>
	<polygon fill="#111414" points="199.47,397.322 201.785,395.107 204.873,395.107 206.416,396.215 206.416,398.195 203.638,398.195 
		200.705,398.195 	"/>
	<path fill="#111414" d="M182.334,389.396l1.544,5.712h-3.705l-14.819,3.088C161.648,404.524,170.91,383.529,182.334,389.396z"/>
	<path fill="#111414" d="M197.771,393.874c0,0,5.389-2.766,8.645,0c3.257,2.766-6.946-4.479-6.946-4.479l-1.698,0.927v1.628"/>
	<path fill="none" stroke="#8E7259" stroke-miterlimit="10" d="M133.243,434.513c0,0-22.538,6.753-1.853,21.264h6.793
		c0,0,10.806,3.088,11.114-3.705"/>
	<path fill="#564129" d="M152.077,447.44c0,0,4.631,10.497,9.571,11.732c4.939,1.234-12.041-2.161-13.585,0
		S156.399,454.541,152.077,447.44z"/>
	<path fill="#1F1612" d="M176.486,476.882c0,0,36.807,10.628,42.897,8.843c6.091-1.784-7.102,0.927-9.263,2.471
		C207.96,489.738,180.518,475.449,176.486,476.882z"/>
	<path fill="#1F1612" d="M179.556,488.312c0,0,4.939,1.427,11.732,1.427c6.792,0,7.443-0.714,7.443-0.714s5.833-0.829,7.685,0.714
		c1.853,1.544,16.056,0,16.056,0l1.543-0.37"/>
	<path fill="#1F1612" d="M183.878,495.296c0,0,7.204-1.234,11.938,0c4.735,1.235,11.322,0,14.821,0
		c3.498,0,11.835-2.675,11.835-2.675h1.543"/>
	<path fill="#92714D" d="M141.889,462.26c0,0,11.847,8.17,13.334,16.436c1.485,8.265,1.177-8.217,1.177-8.217L141.889,462.26z"/>
	<path fill="#92714D" d="M153.621,498.505c0,0,3.298-4.776,5.594-2.66c2.295,2.116-9.581-15.967-10.058-19.063"/>
	<path fill="#9F7454" d="M195.815,396.651c0,0,1.647,1.017,3.654,2.747c2.007,1.729,2.007,1.729,2.007,1.729
		s4.993-0.919,6.664-0.768c1.672,0.15,5.068,5.708,5.377,6.942c0.309,1.235,1.332,5.558,1.592,5.866c0.261,0.31-1.283,0-1.283,0
		l-1.544-3.292l-1.853,3.292l-3.371,0.138c0,0-0.975,1.715-1.58-0.138c-0.605-1.852-1.841-4.631-1.841-4.631l-4.906,1.339
		c0,0-6.07,6.071-4.132,6.071c1.937,0-3.62,0-4.547,0c-0.926,0-3.91-1.544-1.646-4.322c2.264-2.779,5.352-6.508,5.352-6.508"/>
	<path fill="#120A0B" d="M194.6,415.948c0,0,4.716-9.571,9.038-7.41s3.421,4.769,3.421,4.769"/>
	<polyline fill="#120A0B" points="210.43,413.169 212.282,409.877 213.826,413.169 	"/>
	<path fill="#453A2D" d="M202.415,415.948c0,0-12.993,11.732-14.839,20.995l16.062-20.995l-0.694-1.235"/>
	<path fill="#D5A56C" d="M237.716,311.295l-11.38-6.968c0,0-29.229,9.026-34.992,3.484c-5.763-5.542-14.82-0.662-15.643,3.484
		c-0.824,4.146-6.175,2.438-6.175,0s-0.413-15.201,4.939-17.258c5.352-2.06,19.759-0.413,19.759-5.353s1.235-14.408-8.644-25.523
		l-19.349-13.997l-8.645-18.525c0,0,5.762-1.235,13.996,6.998c8.233,8.234,9.057,6.175,9.057,6.175s-34.992-27.581-27.17-35.402
		c7.821-7.822,4.94-2.058,4.94-2.058s0.822-5.352,3.705-3.705c2.881,1.646,14.819,12.761,14.819,12.761l18.088,11.938
		c0,0,27.607,25.111,27.607,26.758s16.878,14.408,17.289,18.525c0.412,4.117,15.025,5.866,15.025,5.866"/>
	<path fill="#7F6143" d="M46.295,535.021c0,0,6.674,36.64,31.374,55.781c0,0,9.88,13.778,8.232,22.635
		c-1.645,8.856,6.6,19.431,7.499,23.676c0.9,4.245,38.195-78.627,38.195-78.627l4.082-46.517l-22.812-13.586"/>
	<path fill="#664D36" d="M58.731,555.604c0,0,3.295,2.425,7,4.712c3.705,2.286,8.267,12.166,8.267,12.166l6.141,12.762l6.588,1.647"
		/>
	<path fill="#664D36" d="M86.727,576.562c0,0,2.757-5.979,4.26-8.734c1.503-2.754,5.443-7.693,5.121-9.341
		c-0.326-1.647,0.018-7.462,0.018-7.462l6.656-2.007c0,0,5.763-2.623,6.997-3.369c1.235-0.747,2.217-1.569,4.607-6.922
		s9.653-9.161,9.653-9.161v-10.752c0,0-2.75,13.18,2.796,10.752c5.545-2.428-5.72,28.114-5.72,28.114l-6.729,42.384
		c0,0,0.333-31.286-4.194-28.815c-4.53,2.47-16.88,14.82-17.702,15.644c-0.823,0.822,6.411-8.379,3.618-10.776
		C93.312,573.718,86.727,576.562,86.727,576.562z"/>
	<path fill="#7F6143" d="M125.421,505.861c0,0,2.629,7.721-3.705,6.426c-6.334-1.296,6.334,1.295,6.334,1.295l3.341-0.996
		L125.421,505.861z"/>
	<path fill="#7F6143" d="M253.861,493.856c0,0,25.11-45.953,52.28-44.795c0,0,17.907-53.182,41.989-56.887
		c0,0-98.49-74.1-104.665-76.569c-6.175-2.47,16.981-33.345,16.981-33.345s45.694,25.935,68.542,33.345
		c22.847,7.41,81.509,46.312,81.509,51.869c0,5.558-14.82,69.777-19.143,75.335c-4.322,5.557-31.492,58.246-57.427,81.301
		c3.423-3.205-5.558,14.84-1.853,28.827s-0.617,38.07-3.087,41.157"/>
	<path fill="#664D36" d="M304.083,452.071c0,0-13.171,22.848-7.718,30.875L304.083,452.071z"/>
	<path fill="#664D36" d="M293.634,484.799c0,0-4.102,22.809-5.193,34.953c-1.091,12.146,5.352,9.508,5.352,9.508l1.251-25.248
		l45.061-36.503c10.498,1.235-27.612,11.271-45.061,30.234L293.634,484.799z"/>
	<path fill="#664D36" d="M298.858,509.722c0,0,63.476-22.453,65.327-31.716c1.854-9.262-53.104,41.746-53.104,41.746l-3.705,18.151
		c0,0,22.229-13.17,21.612,3.295c0,0-28.2-8.409-24.906,9.276s-10.291-21.215-10.291-21.215l0.856-17.29L298.858,509.722z"/>
	<path fill="#664D36" d="M288.316,333.452l89.455,54.4c0,0-19.76,11.114-24.7,9.262S301.365,333.391,288.316,333.452z"/>
	<path fill="#664D36" d="M356.669,397.057c0,0,16.527,6.313,32.835,0.266c0,0-22.705,14.404-36.433-0.208"/>
	<path fill="#664D36" d="M392.591,400.36l-39.52,55.416l36.433-20.377c0,0,14.643-42.064,3.087-38.077"/>
	<path fill="#664D36" d="M263.741,478.695"/>
	<path fill="#986F36" d="M192.214,270.992c0,0,8.027-7.256,13.585-5.249c-0.849-0.227-8.799,3.087-9.417,4.014
		c-0.617,0.926,9.417,1.081,11.27,8.491c0,0-8.954-9.417-15.438-5.094c1.16-0.622,0.618-1.333,0.618-1.333L192.214,270.992z"/>
	<polygon fill="#986F36" points="194.993,259.722 198.08,258.069 203.638,252.003 199.933,259.722 	"/>
	<path fill="none" stroke="#986F36" stroke-miterlimit="10" d="M167.823,222.364c0,0,3.087,4.94,9.263,7.101
		c6.175,2.162,11.114,8.336,12.041,9.571c0.926,1.235,0.926,5.249,3.087,5.866s7.719-1.235,7.719-1.235l3.705,1.361"/>
	<path fill="none" stroke="#986F36" stroke-miterlimit="10" d="M177.086,218.35c0,0-7.719-4.014-9.263-5.249
		c-1.544-1.235-5.866,1.235-4.322,5.249c1.543,4.014,4.816,9.488,11.053,9.993"/>
	<polyline fill="#986F36" points="170.129,233.696 172.454,228.343 172.454,235.331 	"/>
	<path fill="none" stroke="#986F36" stroke-miterlimit="10" d="M173.705,254.57c0,0-1.868-10.342,1.837-9.542"/>
	<path fill="none" stroke="#986F36" stroke-miterlimit="10" d="M185.581,263.161c0,0-1.703-14.684,0.149-13.384"/>
	<path fill="none" stroke="#986F36" stroke-miterlimit="10" d="M218.457,302.947c0,0,17.908-4.322,18.834-16.364"/>
	<path fill="#BF9464" d="M50.499,355.743l0.097-1.021l1.139-11.979c0,0-14.82-3.673-15.643-23.021
		c-0.823-19.35-5.353-28.817-5.353-28.817v-15.643v-5.764v-6.338h5.764l2.059,8.658v8.383l2.676,8.646l2.265,8.078
		c0,0,33.756,24.854,33.756,31.029c0,0,14.82,5.353,19.76,7.823c0,0,19.76-1.235,23.054-4.118c3.292-2.882,4.938,0.823,3.292,3.705
		s-8.233,8.645-8.645,9.88s-9.468,6.792-9.468,6.792l-17.702,3.705l-0.617,9.645H48.029"/>
	<path fill="#986F36" d="M37.738,302.947c0,0,3.687,27.739,11.526,30.505v3.971C49.265,337.423,36.914,331.865,37.738,302.947z"/>
	<path fill="#986F36" d="M77.375,329.603c0,0,7.086,5.968,7.086,8.85s0.824,4.291,0.824,4.291l-6.792-6.57L77.375,329.603z"/>
	<ellipse fill="#BF7037" cx="104.664" cy="265.684" rx="69.787" ry="68.497"/>
	<path fill="none" stroke="#492A15" stroke-width="2" stroke-miterlimit="10" d="M64.084,212.782c0,0,64.174,24.298,80.869,107.403"
		/>
	<path fill="none" stroke="#492A15" stroke-width="2" stroke-miterlimit="10" d="M114.386,331.267c0,0-63.474-62.591-29.101-108.903
		c0,0,57.51-23.97,84.844,49.456"/>
	<path fill="none" stroke="#492A15" stroke-width="2" stroke-miterlimit="10" d="M43.502,296.926c0,0-8.488-84.369,70.884-95.829"/>
	<line fill="none" stroke="#492A15" stroke-width="2" stroke-miterlimit="10" x1="46.295" y1="231.837" x2="81.33" y2="201.097"/>
	<path fill="#F2F2F2" d="M125.216,505.176l7.41,3.705c0,0,17.29-8.027,24.082-6.792c6.793,1.234,4.94-3.705,4.94-3.705
		s18.524,1.853,22.847,5.248c4.323,3.396,17.907,8.954,22.848,5.249c4.939-3.705,18.524-10.497,18.524-10.497h2.471h3.087
		l10.497,3.087l7.41-3.087l8.027-3.088c0,0,33.345,30.875,36.433,41.989c3.087,11.115,16.055,28.405,20.377,32.11
		s14.82,24.699,14.82,24.699s1.234,16.055,0,18.525c-1.235,2.47,9.88,33.962,8.645,39.52s-1.235,55.574-8.027,61.132
		c0,0,4.94,22.229,4.94,25.317c0,3.087-209.331,3.087-209.331,3.087s-8.027-43.842-4.939-46.93c0,0-11.115-24.699-10.498-31.492
		c0,0-10.497-6.792-10.497-13.585c0-6.792-6.792-7.409-6.792-7.409s25.317-54.957,25.317-67.307
		c0-12.351,12.35-58.662,13.584-62.367C132.626,508.881,125.216,505.176,125.216,505.176z"/>
	<path fill="#B63D50" d="M49.265,355.743l16.672-8.645l12.968,4.322l7.41,4.323v14.202v15.438v9.263l4.939,23.465v15.438
		c0,0,8.027,23.465,0,32.109s3.567,12.35,3.567,12.35l16.81,20.378c0,0,9.88-0.618,0,17.907
		c-9.88,18.524-22.229,29.64-25.935,31.492s-22.229,9.263-36.432-7.41c-14.202-16.672-15.438-30.257-15.438-32.728
		c0-2.47,1.853-17.289,0-20.994s-4.322-29.64-4.322-32.11c0-2.47,2.47-27.787,7.409-37.667c4.94-9.88,8.646-28.404,9.88-32.109
		C48.029,381.06,49.265,355.743,49.265,355.743z"/>
	<path fill="#E0B70B" d="M51.734,347.098v-6.175c0,0,15.438-20.377,35.197,6.175v4.94C86.932,352.038,72.111,324.25,51.734,347.098z
		"/>
	<path fill="#B63D50" d="M243.466,315.605c0,0-2.161-15.746,16.981-33.345l-5.558-4.014c0,0-14.511,14.82-17.599,34.888"/>
	<path fill="#4E111C" d="M56.057,524.11c0,0-31.492-48.574,0-56.602s37.021,25.317,37.344,30.875"/>
	<path fill="#4E111C" d="M66.863,429.225c0,0,22.62,15.635,21.652,29.121c0,0,2.092,1.752,2.415,2.68"/>
	<path fill="#4E111C" d="M84.257,463.805c0,0,6.791,1.647,7.614,0"/>
	<path fill="#4E111C" d="M90.931,467.098c0,0-4.204,2.058-6.674,1.235"/>
	<path fill="#4E111C" d="M84.257,471.626c0,0,4.321-2.882,5.762-2.059"/>
	<path fill="#4E111C" d="M88.516,475.546c0,0,2.532-1.656,3.355-3.302"/>
	<path fill="#4E111C" d="M88.516,479.779c0,0,1.091-6.909,3.355-5.885"/>
	<polyline fill="#4E111C" points="75.08,350.145 84.257,357.595 85.285,377.461 	"/>
	<path fill="#EBB220" d="M93.4,640.261l5.41,6.593c0,0,24.141-50.906,24.553-56.257c0.413-5.352,5.352-24.393,6.998-39.572
		c0,0,10.718-29.327,9.47-36.997c-1.25-7.671-8.452-3.217-8.452-3.217s-12.876,57.734-13.553,63.262
		c-0.676,5.527-11.356,36.034-13.285,40.621C102.612,619.279,93.4,640.261,93.4,640.261z"/>
	<path fill="#EBB220" d="M159.215,502.262c0,0,5.315-0.997,2.434-3.878c-2.883-2.882,29.922,4.608,31.016,9.508
		c1.094,4.9,13.181,2.037,14.679,0.989s18.524-10.497,18.524-10.497l4.116,5.822c0,0-19.349,13.526-22.229,13.526
		s-12.761,4.527-19.759-4.94C180.995,503.324,159.215,502.262,159.215,502.262z"/>
	<path fill="#EBB220" d="M258.389,495.296l5.353-2.675c0,0,25.376,17.964,30.051,36.639c4.675,18.674,16.877,29.638,18.936,32.932
		c2.06,3.294,15.94,26.785,16.262,31.903c0,0-17.084-26.139-18.319-27.786c-1.234-1.647-25.524-36.226-25.111-38.284
		C285.971,525.966,265.017,493.142,258.389,495.296z"/>
	<path fill="none" stroke="#571826" stroke-miterlimit="10" d="M93.4,640.261c0,0,24.43-56.854,24.933-69.108
		c0.503-12.253,13.263-59.183,13.263-59.183"/>
	<path fill="none" stroke="#571826" stroke-miterlimit="10" d="M96.107,643.559c0,0,25.608-56.667,25.608-63.254
		c0-6.586,6.175-32.521,6.175-32.521l8.311-38.219"/>
	<path fill="none" stroke="#571826" stroke-miterlimit="10" d="M98.811,646.854c0,0,23.847-53.828,25.279-60.958
		c1.433-7.131,6.271-34.871,6.271-34.871l9.47-36.997"/>
	<path fill="none" stroke="#571826" stroke-miterlimit="10" d="M161.648,498.384c0,0,23.201,4.178,30.108,8.229
		c6.907,4.053,17.233,4.532,21.35-1.643s12.761-6.587,12.761-6.587"/>
	<path fill="none" stroke="#571826" stroke-miterlimit="10" d="M227.307,500.419c0,0-19.552,14.843-29.432,13.608
		c-9.88-1.235-27.582-17.198-36.227-12.716"/>
	<path fill="none" stroke="#571826" stroke-miterlimit="10" d="M161.648,504.012c0,0,29.432,10.12,32.828,14.802
		c3.398,4.683,14.734-1.521,14.734-1.521l20.772-13.087"/>
	<path fill="none" stroke="#571826" stroke-miterlimit="10" d="M263.741,492.621c0,0,25.131,21.412,28.907,33.064
		c3.776,11.653,13.303,28.129,13.303,28.129l9.946,13.698l13.092,22.261"/>
	<path fill="none" stroke="#571826" stroke-miterlimit="10" d="M261.271,493.856c0,0,25.522,21.407,30.463,40.343
		c4.939,18.937,16.226,28.284,16.226,28.284l20.343,28.961"/>
	<path fill="none" stroke="#571826" stroke-miterlimit="10" d="M258.389,493.856c0,0,22.394,24.313,28.486,37.062
		s9.49,14.73,9.49,14.73"/>
	<path fill="#C1C6C9" d="M144.771,514.101c0,0,1.646,27.096-4.939,37.388c-6.588,10.291-11.94,35.452-10.705,39.956
		c1.235,4.503,4.53-38.309,10.705-42.838C146.006,544.078,144.771,514.101,144.771,514.101z"/>
	<path fill="#C1C6C9" d="M159.215,535.021c0,0,23.84-15.644,34.543-9.468c0,0-16.877,1.233-20.995,7.82
		C172.763,533.374,161.309,530.905,159.215,535.021z"/>
	<path fill="#C1C6C9" d="M144.953,623.117c0,0,7.638-31.697,19.165-37.461s23.876-20.585,25.522-22.643
		c1.647-2.057,13.997-4.527,13.997-4.527s-8.645,1.234-12.763,6.998c-4.114,5.764-15.193,13.444-14.389,14.956
		c0.805,1.511-14.016,7.686-14.838,13.654S144.953,623.117,144.953,623.117z"/>
	<path fill="#C1C6C9" d="M183.878,580.44c0,0,22.641-19.071,21.406-21.954c-1.235-2.882,1.234,2.883,1.234,2.883l4.118-2.883
		C210.637,558.486,201.168,569.462,183.878,580.44z"/>
	<path fill="#C1C6C9" d="M197.258,580.44c0,0,17.493-15.369,15.436-18.661c-2.057-3.293,7.41,0,7.41,0l-4.116,7.28L197.258,580.44z"
		/>
	<path fill="#C1C6C9" d="M288.44,586.892l-14.819,12.35c0,0-16.055,64.632-34.58,95.094c-18.524,30.463,38.337-87.272,38.337-87.272
		L288.44,586.892z"/>
	<path fill="#C1C6C9" d="M304.083,597.183c0,0-11.322,22.643-10.395,31.698c0.927,9.057,5.17-15.849,5.17-15.849L304.083,597.183z"
		/>
	<path fill="#C1C6C9" d="M293.688,585.244c0,0-7.308,43.345-11.835,55.017C277.326,651.934,293.688,585.244,293.688,585.244z"/>
	<path fill="#C1C6C9" d="M220.104,740.029c0,0,18.938-34.991,20.584-37.462c1.646-2.47,27.993-39.52,31.698-42.4
		c3.705-2.882-23.054,34.168-26.141,43.225c-3.088,9.056-17.907,38.284-17.907,38.284"/>
	<path fill="#C1C6C9" d="M253.861,717.388c0,0,44.871-80.273,48.164-79.862c3.293,0.412,13.996-11.115,23.876-11.527l-21.818,17.561
		L253.861,717.388z"/>
	<path fill="#C1C6C9" d="M253.861,741.676c0,0,54.75-76.156,59.69-73.275c0,0-38.286,63.807-37.874,73.275"/>
	<polygon fill="#C1C6C9" points="232.043,674.163 210.637,740.029 197.258,743.322 	"/>
	<path fill="#C1C6C9" d="M309.023,687.748c0,0,21.818-28.817,21.818-34.58s-2.54,9.88-2.54,9.88l6.245-4.939
		C334.547,658.108,311.904,686.101,309.023,687.748z"/>
	<path fill="#C1C6C9" d="M105.251,649.463c0,0,7.398-25.934,10.903-29.227c3.504-3.294,9.267-18.115,9.267-20.173"/>
	<path fill="#C1C6C9" d="M128.947,601.711c0,0-8.73,39.93-9.626,47.752C118.424,657.285,120.537,605.005,128.947,601.711z"/>
	<path fill="#C1C6C9" d="M115.336,663.461c0,0-0.326-25.997,3.795-30.464C119.131,632.997,111.836,639.585,115.336,663.461z"/>
	<path fill="#C1C6C9" d="M128.947,651.894l10.884-40.715l-3.63,4.528c0,0-0.254-17.29-1.813-18.524
		C132.831,595.947,134.121,645.267,128.947,651.894z"/>
	<path fill="#C1C6C9" d="M281.061,741.676c0,0,51.016-31.698,49.781,0"/>
	<polygon fill="#C1C6C9" points="199.933,641.633 220.104,608.298 232.043,608.298 215.987,608.298 199.933,623.117 	"/>
	<polyline fill="#A16E5E" points="1116.777,172.656 1119.555,172.656 1119.555,175 1119.555,178.863 1119.555,181.688 
		1120.857,186.608 1120.857,189.853 1118.814,191.847 1114.615,190.395 	"/>
	<polyline fill="#A16E5E" points="1064.193,184.756 1062.725,184.756 1060.754,184.756 1060.754,186.608 1064.193,189.022 
		1064.193,190.957 1064.193,193.822 1067.236,194.949 1070.166,193.768 	"/>
	<polyline fill="#693724" points="1197.637,190.395 1197.637,183.942 1197.637,171.527 1199.595,163.624 1206.367,152.902 
		1213.637,150.644 1222.037,148.384 1231.105,148.384 1237.699,154.03 1245.637,159.675 1249.268,164.755 1249.268,173.783 
		1249.268,180.556 1249.268,186.608 1249.268,187.799 1229.512,201.616 1201.797,200.545 	"/>
	<polyline fill="#B67563" points="1070.166,133.426 1071.191,139.071 1073.73,140.765 1073.73,142.739 1068.652,149.512 
		1062.725,153.749 1060.754,161.931 1060.754,167.856 1060.754,172.656 1063.85,181.684 1058.233,185.885 1055.383,187.736 
		1051.719,187.736 1050.436,187.736 1051.996,191.523 1051.719,192.975 1043.199,189.73 1033.801,185.885 1028.583,181.684 
		1021.809,177.824 1023.529,149.512 1037.4,139.352 	"/>
	<path fill="#CCB575" d="M1051.719,168.145v-7.619l-1.283-3.387v-3.952l2.977-4.799l3.108-3.667v-6.773h4.233l4.702-1.412l4.71-2.54
		l1.025-2.821l-1.025-3.105l-4.71-1.975l-10.073-1.412l-7.051-1.693h-12.131h-2.54l-10.132,2.541l-5.106,9.032l-8.189,8.748
		l-4.233,9.597l-2.394,8.466l3.624,6.773c0,0-0.185,2.82,0,3.667c0.186,0.847,3.003,2.54,3.003,2.54l2.817,2.345h8.758v4.709
		l5.637,0.847c0,0,0.005-2.54,0.29-3.387c0.277-0.847,3.942-2.169,3.942-2.169h3.108c0,0,0.992-0.761,2.614,0
		c1.619,0.76,5.005,0,5.005,0l-1.349-2.345l-5.424-2.259l1.768-3.949v-4.518v-3.102l-2.045-3.953l2.045-1.975l2.466-0.284
		l1.19,4.233l4.167,2.259l1.415,4.514l3.797,3.106"/>
	<polyline fill="#1B1314" points="1116.777,190.395 1116.777,186.608 1116.777,180.556 1116.777,172.656 1114.396,163.624 
		1114.396,155.723 1105.902,148.384 1101.961,141.611 1092.356,141.611 1082.409,141.611 1079.05,141.611 1076.179,141.611 
		1071.191,141.611 1067.236,146.128 1064.709,151.771 1058.233,160.802 1058.233,167.01 1061.502,175 1063.148,182.815 
		1067.236,190.395 1071.191,194.949 	"/>
	<polyline fill="#693724" points="1029.309,462.034 1036.466,480.812 1040.209,497.176 1036.466,508.606 1031.122,516.015 
		1031.122,518.904 1001.49,515.591 995.563,506.21 997.813,497.599 995.563,490.469 993.301,477.987 993.301,465.983 	"/>
	<polygon fill="#251109" points="995.814,483.484 994.148,473.278 1002.336,464.309 1002.336,475.752 1010.095,489.226 
		1015.029,495.926 1005.656,490.462 	"/>
	<path fill="#0B080B" d="M1016.755,403.508c0,0,15.214,47.673,15.214,56.854c0,9.18-39.514,7.414-39.514,7.414l-4.233-12.342
		l4.233-50.59"/>
	<path fill="#0B080B" d="M996.41,504.537c0,0,31.035,0.563,33.574,18.342c2.539,17.778-25.108,69.722-25.108,69.722l-2.54,23.031
		l-21.166-3.5l12.979-107.595"/>
	<path fill="#8F060A" d="M984.557,615.632h17.779c0,0-1.415,20.16,0,23.957c1.402,3.796,7.759,21.065,7.759,21.065
		s8.884,12.64,9.452,15.464s5.372,12.562-9.452,5.153c-14.822-7.408-24.691-15.875-24.691-15.875l-9.206-14.616l-5.186-10.716"/>
	<path fill="#83A9ED" d="M944.481,329c0,0,3.948-3.386,4.517-8.466c0.557-5.08,4.512-12.352,4.512-12.352l3.955-8.668
		c0,0-0.568-9.336,1.693-13.914c2.25-4.576,2.817-11.723,2.817-11.723l2.263-16.077l5.079-13.536c0,0,0-6.7,3.387-10.087
		c3.387-3.386,1.998-3.386,3.539-8.465c1.542-5.08,0.973-9.693,4.358-12.749c3.387-3.056,4.518-1.412,5.649-9.29
		c1.125-7.877,6.204-17.065,6.204-17.065l9.881-3.793h8.176l14.473-2.259l12.706,6.052l12.017,4.349l3.705,7.098h4.643
		c0,0-39.632,3.389-48.668,19.191c-9.034,15.802,9.036,25.818,11.854,23.632c2.817-2.186-1.674,11.876-1.674,11.876l-2.812,28.3
		l-15.491,21.417l-16.707,22.651l-11.853,9.121l-23.99-3.268"/>
	<path fill="#6F93C6" d="M978.063,232.201c0,0,20.888-18.344,24.273-16.651c3.387,1.693-1.072-5.077-1.072-5.077l-3.451,5.077"/>
	<path fill="#6F93C6" d="M1010.233,240.667c0,0-12.131-1.128-16.085-1.128c-3.955,0,14.671-1.978,14.671-1.978"/>
	<path fill="#6F93C6" d="M972.704,246.594c0,0,24.063-12.412,30.902-11.854c6.825,0.56,0-3.859,0-3.859
		S975.243,242.079,972.704,246.594z"/>
	<path fill="#6F93C6" d="M972.704,255.341c0,0,37.529-12.418,37.529-13.546c0-1.127,8.189,3.387,8.189,3.387
		S978.63,250.823,972.704,255.341z"/>
	<path fill="#6F93C6" d="M953.231,320.535c0,0,13.507-8.129,16.364-11.714c2.857-3.584,13.269-6.35,13.269-6.35h1.692l-13.268,6.35
		l-18.058,13.245"/>
	<path fill="#EDEDED" d="M1105.712,190.395c0,0,3.968,14.357,3.478,16.275c-0.489,1.921-46.425,13.681-47.92,19
		c-1.481,5.318-56.122,26.314-53.973-1.402c2.143-27.714,39.064-23.386,42.94-21.632
		C1054.112,204.391,1105.712,190.395,1105.712,190.395z"/>
	<path fill="#DBDBDB" d="M1014.805,211.33c0,0-19.241,23.781,7.004,27.406C1021.809,238.735,998.95,234.744,1014.805,211.33z"/>
	<path fill="#DBDBDB" d="M1010.233,225.712c0,0,3.108,11.849,11.575,9.309C1021.809,235.021,1011.08,234.178,1010.233,225.712z"/>
	<path fill="#DBDBDB" d="M1045.224,203.673c0,0,32.132,2.219,35.003-2.593c0,0-12.5,5.844-22.172,4.31
		c-9.677-1.535-12.831-0.847-12.831-0.847"/>
	<path fill="#DBDBDB" d="M1067.236,201.08c0,0,16.086-1.207,17.779,0C1086.709,202.288,1067.236,201.08,1067.236,201.08z"/>
	<path fill="#DBDBDB" d="M1077.965,198.055c0,0,14.657,0.222,18.903-3.106C1096.868,194.949,1092.08,200.313,1077.965,198.055z"/>
	<path fill="#C69278" d="M1190.447,192.158c0,0,30.438-1.931,35.075-2.497c4.638-0.566,12.25-3.956,20.611-2.824
		c8.366,1.131,22.283,16.882,24.022,18.037c1.732,1.155,11.581,6.8,11.581,6.8l-3.473,7.335l-21.087,6.492l-14.114-4.438
		l-77.823,9.587l-2.897-2.913C1162.343,227.736,1179.68,192.858,1190.447,192.158z"/>
	<path fill="#B37855" d="M1069.062,571.54l3.85-25.484c0,0-3.294-20.624-6.494-26.033c-3.202-5.412,48.853-13.09,48.853-13.09
		v32.304l-2.475,17.534l-5.748,20.425l-7.468,6.496"/>
	<path fill="#B37855" d="M1118.317,517.23c0,0,4.802,31.048,5.649,34.435c0.847,3.386,2.321,16.33,3.142,17.561
		s36.637,5.212,36.637,5.212l6.217-55.792"/>
	<path fill="#D8D5B3" d="M1108.873,718.517c0,0,9.57,11.151,11.496,12.064c1.924,0.912,12.256,6.893,12.256,6.893
		s10.523-0.735,14.479,0c3.956,0.734,22.014,1.229,22.014,1.229h9.973c0,0-13.354-14.975-17.871-15.921
		c-4.518-0.945-7.991-8.823-10.77-11.938c-2.777-3.115-2.777-3.115-2.777-3.115l-23.896-16.006"/>
	<path fill="#D8D5B3" d="M1083.064,709.264c0,0,25.716,7.492,31.331,15.961c5.616,8.466,17.297,8.466,18.229,6.772
		c0.933-1.694,4.318,2.626,2.625,5.264c-1.692,2.64-18.988-0.198-25.861,0.939c-6.872,1.139-12.521-0.006-15.907,0
		c-3.387,0.008-5.04-0.006-10.417,0c-5.379,0.008-13.269,0-13.269,0l-13.447,0.503c0,0-4.035-14.055-1.642-11.508
		c2.389,2.546,11.152,6.137,15.089,5.754c3.935-0.384,16.583-4.333,16.583-4.333L1083.064,709.264z"/>
	<path fill="#171519" d="M1068.394,568.485c0,0,34.989,8.564,33.296,15.206c-1.693,6.64-5.925,13.863-5.925,13.863
		s-4.181,47.517-10.698,56.552c-6.513,9.035-1.435,29.348-3.127,32.172c-1.693,2.824,1.125,22.985,1.125,22.985
		s-8.468,3.229-12.422,0c-3.943-3.229-13.547-6.966-13.547-6.966s-1.693-26.748,0-31.258c1.693-4.511,0-63.445,8.466-68.69
		L1068.394,568.485z"/>
	<path fill="#1E1C19" d="M1072.342,571.54c0,0,17.488,5.424,18.057,9.002c0.569,3.579-1.686,62.274-14.669,70.178
		c-12.984,7.904-14.114,0-14.114,0L1072.342,571.54z"/>
	<path fill="#171519" d="M1124.224,566.752c0,0,27.661-15.147,40.077,8.711c0,0-3.387,14.035-3.387,20.358
		c0,6.324,5.08,30.657-7.904,47.557s-12.408,56.407-8.744,61.486c3.665,5.08-16.23-4.299-16.23-4.299s-6.582-18.282-12.25-12.634
		c-5.668,5.649,7.877-47.278,7.877-49.6s0-25.506,0-27.179c0-1.674-6.204-24.605,1.694-32.046
		C1133.254,571.665,1124.224,566.752,1124.224,566.752z"/>
	<path fill="#2C282A" d="M1131.818,569.536c0,0,10.906-6.939,17.117,0c6.211,6.938-8.651,35.115-8.559,41.347
		c0.093,6.229-11.192,4.536-11.192,4.536s-5.641-25.94,0-27.646C1134.827,586.066,1131.818,569.536,1131.818,569.536z"/>
	<path fill="#2C282A" d="M1129.185,619.329l9.38-3.697c0,0-7.117,32.767-9.38,36.597c-2.263,3.828-2.507-4.074-2.507-4.074
		L1129.185,619.329z"/>
	<path fill="#BD2D1C" d="M1057.096,702.298c0,0,15.617,5.159,18.951,8.4c3.332,3.241,7.018-1.435,7.018-1.435s8.208,19.908,0,24.427
		c-8.209,4.518-24.547-7.336-25.969-3.949C1055.676,733.127,1048.359,713.801,1057.096,702.298z"/>
	<path fill="#BD2D1C" d="M1110.982,691.358c0,0,1.84,14.399-4.471,19.34s0.251,9.009,2.361,7.818
		c2.109-1.19,20.736,4.266,20.736,4.266l14.107,9.215c0,0-26.338-32.576-19.941-40.274
		C1123.775,691.723,1110.745,687.416,1110.982,691.358z"/>
	<path fill="#1E1E1E" d="M1055.105,412.532c0,0-10.582,19.896-2.116,33.02s0.847,43.601,2.116,49.104
		c1.27,5.503,1.938,26.245,1.938,26.245s18.805-2.116,26.848,0c8.043,2.117,18.07,2.117,18.07,2.117h9.868l2.786-1.694l8.71-0.423
		l9.882-0.847h4.192h8.083l28.998,2.964c0,0,2.011-11.854,3.121-20.744c1.111-8.889,2.699-32.172,0-38.521
		c-2.698-6.351-7.778-35.558-7.354-36.828c0.423-1.271,7.349-21.729,7.349-21.729S1067.806,384.171,1055.105,412.532z"/>
	<path fill="#111111" d="M1063.148,409.57c0,0,65.944-16.768,107.264-5.633c0,0-30.222-4.666-43.767,0.906"/>
	<path fill="#111111" d="M1096.59,404.844c-4.233,4.302-7.62,22.505-7.195,25.044c0.423,2.541,3.352,13.123,3.584,15.664
		c0.226,2.539-4.855-27.654-10.569-29.066s-17.204-4.656-20.907-3.368"/>
	<path fill="#111111" d="M1105.902,506.933c0,0-6.772-60.111-16.508-64.346c-9.737-4.232,7.195,3.117,7.195,3.117
		s8.89-16.662,12.277-17.085c0,0-12.33,17.779-11.244,22.436c1.084,4.656,17.169,0,29.022,30.902c0,0-19.434-21.722-24.129-21.596
		C1097.82,460.486,1105.902,506.933,1105.902,506.933z"/>
	<path fill="#111111" d="M1119.555,451.055c0,0,18.097,33.864,13.652,44.448C1133.207,495.503,1141.25,469.68,1119.555,451.055z"/>
	<path fill="#232323" d="M1026.32,240.386c0,0,80.152-37.814,90.311-36.687c10.16,1.128,18.058,3.952,19.189,6.773
		c1.131,2.821,9.598,14.674,9.598,14.674s32.74,83.535,32.17,86.922c-0.567,3.386,0.008,55.312,0.008,55.312v12.418
		c0,0-0.556,22.579,0,25.398c0.555,2.821-45.162-2.258-48.549-3.951c-3.386-1.693-29.354-0.016-36.69,4.79
		c-7.336,4.804-25.967,3.11-38.944,10.45c0,0-3.949-28.221-0.563-32.172c3.387-3.953,3.387-24.272,3.387-24.272l1.693-28.786
		l-4.518-25.96v-28.224l-7.336-23.705C1046.076,253.367,1039.297,251.111,1026.32,240.386z"/>
	<path fill="#0F0B09" d="M1105.902,285.962c0,0,14.393,26.458,17.145,28.15c2.752,1.693-15.874-23.706-17.145-28.997"/>
	<path fill="#0F0B09" d="M1129.82,308.82c0,0-4.867,9.102,15.662,10.16C1145.482,318.98,1130.032,314.112,1129.82,308.82z"/>
	<path fill="#0F0B09" d="M1105.902,294.005c0,0,17.779,37.251,27.305,40.215C1133.207,334.22,1120.295,336.548,1105.902,294.005z"/>
	<path fill="#0F0B09" d="M1108.867,368.931c0,0,24.975,15.24,45.719,16.085c20.74,0.847,19.048,6.271,19.895,10.332
		c0,0-2.963-14.564-22.437-17.104C1132.571,375.704,1108.867,368.931,1108.867,368.931z"/>
	<path fill="#0F0B09" d="M1077.54,368.931c0,0,5.927,54.608,9.737,0"/>
	<path fill="#232323" d="M1114.615,203.673c0,0,7.658,3.413,34.467-10.133c0,0,26.528-3.671,44.871-2.259
		c-1.423-0.093-21.722,19.473-29.909,33.019c-8.19,13.546-22.02,1.932-25.97,2.236"/>
	<path fill="#FA7F8B" d="M1133.207,203.673l12.275-5.619c0,0,3.6,22.012,6.984,26.245c3.387,4.233-6.004,3.528-6.004,3.528
		L1133.207,203.673z"/>
	<polyline fill="#B5795D" points="1209.912,570.409 1209.768,569.741 1203.564,543.642 1248.627,529.606 1250.962,545.328 
		1249.373,555.996 1248.627,563.524 1248.627,570.409 1244.512,575.078 1244.506,576.765 1244.406,583.691 	"/>
	<path fill="#B5795D" d="M1219.451,575.642c-1.402-3.301-2.68-6.503-2.355-10.147c0.384-4.351-6.39-4.312-6.773,0
		c-0.43,4.85,1.417,9.194,3.281,13.561C1215.311,583.063,1221.144,579.609,1219.451,575.642z"/>
	<path fill="#B5795D" d="M1269.024,538.707c0,0-0.323,34.937,13.665,49.984c13.983,15.048,26.08-2.071,26.08-2.071l4.062-23.752
		c0,0-4.577-22.799-3.074-31.013c1.5-8.21-40.732,4.802-40.732,4.802"/>
	<path fill="#B5795D" d="M1050.448,231.906c0,0,8.892-7.19,16.933-4.934c8.043,2.255,17.78,15.167,17.78,15.167
		s38.813-11.787,44.806-10.232c5.992,1.554,8.888,36.891,9.04,36.289c0.152-0.602-63.583,5.513-76.282-2.97
		C1062.725,265.226,1050.025,235.432,1050.448,231.906z"/>
	<path fill="#B5795D" d="M1332.324,254.084c0,0,41.034,15.682,44.844,23.11c3.811,7.428,8.043,15.107,5.927,18.04
		c-2.116,2.934-11.429,5.831-18.202,3.324c-6.773-2.507-45.439-16.592-45.439-16.592"/>
	<path fill="#F4F4F4" d="M1276.922,601.543c0,0-1.44-17.567-0.615-19.473c0.828-1.905,26.649-9.948,32.787,0
		c6.139,9.948,5.319,17.653,5.504,19.473C1314.781,603.362,1276.922,601.543,1276.922,601.543z"/>
	<path fill="#F4F4F4" d="M1210.66,589.254c0,0,0.232-14.73,4.465-15.577c4.233-0.847,18.057-13.829,30.194,4.795
		c0,0,0.218,10.762-1.442,14.129"/>
	<path fill="#111111" d="M1219.635,687.688c0,0,1.979-9.597-3.947-30.479c-5.926-20.881-13.262-65.19-5.643-67.73
		c7.62-2.54,28.217-15.524,36.12,8.467c7.905,23.989-3.669,62.928-3.669,69.138c0,6.211,5.813,19.188,6.435,23.707
		c0.621,4.518,2.031,5.648,2.031,5.648S1228.103,677.527,1219.635,687.688z"/>
	<path fill="#353535" d="M1210.66,592.601l12.641-4.53c0,0-7.336,38.375-4.797,45.433c2.541,7.058-5.925-1.978-5.925-1.978
		S1207.366,593.784,1210.66,592.601z"/>
	<path fill="#945B13" d="M1221.521,707.9c0,0,1.78,8.288,5.449,9.419c3.672,1.131,8.19,5.643,8.751,6.489
		c0.563,0.846,2.541,3.955,2.541,3.955l2.256,4.511l1.979,4.141c0,0,2.261,1.785,3.387,1.785c1.123,0,7.333,0,7.333,0h6.212h3.948
		h4.796h8.135v-1.958l-5.311-1.706l-3.949-2.823l-3.108-1.41l-3.387-3.107l-3.387-4.148l-1.692-1.11l-4.511-2.924l-3.388-3.102
		l-1.938-3.327l-1.29-1.799l-2.136-2.368l-3.09-2.116l-2.275-1.681l-0.919-1.653C1235.927,702.967,1225.1,699.613,1221.521,707.9z"
		/>
	<path fill="#FB8355" d="M1221.892,709.138c0,0-0.371-0.39-0.874-1.191c-1.548-2.485-4.365-8.955-1.383-20.259
		c3.949-14.955,19.327,0.748,21.346,1.938c2.017,1.191,35.326,31.643,35.326,31.643s6.826,13.546,5.694,15.24
		c-1.13,1.692-9.597,0-9.597,0s-14.961-9.029-16.932-11.568c-1.972-2.54-6.767-5.642-7.898-8.184
		c-1.131-2.539-4.518-7.083-5.363-7.492c-0.848-0.41-5.365-3.798-5.365-3.798s-0.563-3.101-4.795-3.101
		c-4.233,0-9.598,3.664-9.598,3.664"/>
	<path fill="#FB8355" d="M1291.877,709.264c0,0-5.595,11.925-4.067,13.519c1.527,1.595-1.674,12.879,1.904,13.164
		c3.579,0.283,12.892,0.283,17.124,0c4.233-0.285,5.636,2.069,12.977,1.314c7.344-0.753,16.936,0.49,18.065,0.153
		c1.13-0.338,5.642-1.185,5.642-2.878s-2.817-5.357-5.357-5.926c-2.539-0.569-3.108-1.409-4.803-3.386
		c-1.692-1.979-4.232-4.976-4.232-4.976s-5.08-3.214-5.928-3.214c-0.845,0-4.318-1.409-4.558,0.284
		c-0.236,1.693-3.106,5.451-3.106,5.451l-5.313-3.758c0,0-3.021-3.718-4.04-5.02c-1.02-1.304-0.437-1.768-2.58-2.713
		C1301.46,710.335,1292.155,710.52,1291.877,709.264z"/>
	<path fill="#111111" d="M1276.922,601.543c0,0,21.591-16.722,37.676,0c0,0,4.656,44.871,3.598,49.315
		c-1.058,4.445-3.175,53.762-1.904,56.513c1.269,2.752,5.504,17.145-1.906,15.24c-7.407-1.905-7.38-14.816-16.602-12.064
		c3.4-0.271-4.774-0.848-4.774-0.848s-1.904-58.205-8.679-61.381C1277.558,645.144,1275.018,612.126,1276.922,601.543z"/>
	<path fill="#353535" d="M1279.177,602.35c0,0,13.098-6.938,16.146-4.12c3.05,2.817,0,44.871,0,44.871s-9.094,4.518-11.064,0
		C1282.286,638.583,1277.895,602.998,1279.177,602.35z"/>
	<path fill="#1C1C1C" d="M1245.313,483.649c0,0,6.773,64.913,20.318,70.555c0,0,35.004-0.563,37.822-5.642
		c2.816-5.08,14.106-6.218,15.801-5.648c1.693,0.568-7.905-85.226-15.24-93.691l-5.642-36.69c0,0-82.401-10.226-111.755,12.104
		c0,0,2.262,121.095,11.853,130.13c0,0,47.413,11.297,59.828-19.75"/>
	<path fill="#606060" d="M1248.984,495.926c0,0-4.234-48.683,0-56.301c4.231-7.62-15.823,15.663-12.991,21.165
		C1238.824,466.293,1246.021,494.656,1248.984,495.926z"/>
	<path fill="#606060" d="M1306.555,467.015c0,0,2.539,32.721,0,43.727c-2.541,11.007,5.079-9.735,5.079-14.815"/>
	<path fill="#0B8731" d="M1252.653,218.939c0,0-47.417,4.511-53.059,3.949c-5.642-0.562-37.821,2.825-55.878,2.825
		c-18.056,0-15.239,0-15.239,0s14.116,45.149,7.903,46.279c-6.21,1.131,23.713-11.849,23.145,2.825c0,0,16.926,28.22,14.671,38.379
		c0,0,1.699,14.677,2.262,19.191c0.563,4.515,3.387,15.236,3.949,20.881c0.562,5.645-1.694,15.805-1.694,19.19
		c0,3.387,1.125,10.157,3.949,11.288c0,0-5.642,5.14-5.642,11.602c0,6.463,0.563,15.49,0.563,17.184
		c0,1.694-2.257,11.854-2.257,11.854s13.54-0.569,17.496,0c3.955,0.568,23.143,0,23.143,0s29.348-2.823,33.864-10.159
		c4.519-7.336,31.61-3.388,31.61-1.694c0,1.694,16.933,0,16.933,0l6.773-2.255c0,0-7.903-23.144-7.903-29.917
		c0-6.771-4.519-14.111-6.211-16.932c-1.694-2.821-3.389-23.144-7.336-23.706c-3.949-0.562,1.693-27.654,1.693-27.654l1.693-21.45
		l0.561-11.853c0,0,11.861-2.258,17.503,6.773c5.642,9.032,33.864-27.654,24.269-36.687c-9.6-9.031-35.559-22.577-35.559-22.577
		l-13.547-15.802h-12.983l-12.978,4.514L1252.653,218.939z"/>
	<path fill="#109E38" d="M1191.412,347.626c0,0,54.608,0.285,65.19-1.693S1241.363,352.145,1191.412,347.626z"/>
	<path fill="#109E38" d="M1177.583,320.535c0,0,97.653-52.494,100.471-55.316c2.817-2.821,3.386,0,3.386,0v4.518L1177.583,320.535z"
		/>
	<path fill="#109E38" d="M1193.953,325.049l51.359-20.319c0,0,35.565-5.079,36.127,0c0.562,5.08-30.478,2.825-33.865,3.952
		C1244.188,309.81,1193.953,325.049,1193.953,325.049z"/>
	<path fill="#109E38" d="M1266.127,308.183c0,0-44.521,15.739-60.321,16.866c-15.802,1.128,60.321-11.357,60.321-14.112"/>
	<path fill="#109E38" d="M1225.563,340.854c0,0,34.996-2.679,47.411-15.732C1272.974,325.122,1272.928,340.38,1225.563,340.854z"/>
	<path fill="#3A3A3A" d="M1295.336,269.241"/>
	<path fill="#109E38" d="M1225.039,299.931l9.85-7.424c0,0,12.124,3.065,14.379-0.258l-14.379,3.839L1225.039,299.931z"/>
	<path fill="#109E38" d="M1253.031,299.931c0,0,22.463-12.352,28.416-14.182C1287.399,283.921,1256.232,299.507,1253.031,299.931z"
		/>
	<path fill="#109E38" d="M1249.268,240.878c0,0-29.493,31.113-35.631,33.654C1207.498,277.072,1243.838,253.79,1249.268,240.878z"/>
	<path fill="#109E38" d="M1161.781,272.839c0,0,11.051-0.902,15.802-17.355C1182.332,239.03,1177.442,280.882,1161.781,272.839z"/>
	<path fill="#109E38" d="M1193.953,395.349c0,0,20.04,30.055-3.949,8.592C1190.004,403.94,1197.763,409.914,1193.953,395.349z"/>
	<path fill="#109E38" d="M1179.32,366.934c0,0,1.932-7.738,14.633,4.961c12.699,12.699-11.258-21.364-14.307-7.295"/>
	<path fill="#FFFFFF" d="M905.252,403.94l15.239-18.057l6.773-16.953l30.479-34.688l44.871-48.493l33.864-8.952l34.713,17.208
		v14.178l-35.559,16.866l20.716,33.114c0,0-53.734,60.581-62.2,58.323c0,0,0,44.305-5.927,47.691S905.252,403.94,905.252,403.94z"/>
	<path fill="#9B6041" d="M949.588,556.771l8.895,20.425l-6.204,10.875c0,0,37.253,11.858,35.274,16.369
		c-1.977,4.512,7.627-16.099,8.183-20.748c0.569-4.651-2.255-24.467-2.255-24.467"/>
	<path fill="#4D2916" d="M941.253,559.284c0,0,5.802,14.373,4.313,17.911c-1.488,3.539-7.138,10.875-7.138,10.875l7.931,9.484
		l12.39-17.013l-9.036-23.771L941.253,559.284z"/>
	<path fill="#171519" d="M944.712,608.396l-12.011-14.287c0,0-37.847,39.116-36.737,54.356
		c1.099,15.239-32.196,51.359-32.196,51.359l16.932,15.393l15.265-5.953c0,0,4.776-37.451,39.064-50.818
		C969.317,645.079,944.712,608.396,944.712,608.396z"/>
	<polygon fill="#F4F4F4" points="932.701,594.108 938.429,588.07 948.793,601.849 944.481,608.951 	"/>
	<path fill="#171519" d="M948.793,601.849c0,0-20.112,26.859-13.34,59.031s-12.963,59.369-12.963,59.369s6.328,1.786,10.211,2.533
		c3.876,0.748,25.637-7.977,26.048-7.565c0.409,0.409-5.808-9.882-5.808-12.919c0-3.035,38.613-77.01,31.615-83.188
		C977.553,612.933,950.851,598.131,948.793,601.849z"/>
	<path fill="#F4F4F4" d="M952.278,588.07c0,0,33.191,10.165,35.274,16.369c2.084,6.205-2.996,11.192-2.996,11.192l-35.764-13.783
		L952.278,588.07z"/>
	<path fill="#2C282A" d="M948.793,608.951c0,0-17.864,31.636-12.216,44.322s5.556,5.172,5.556,5.172l11.813-46.313L948.793,608.951z
		"/>
	<path fill="#2C282A" d="M901.588,649.027c0,0,16.926-43.549,28.216-43.945l2.897,3.869c0,0-28.296,36.128-27.449,40.076
		C906.099,652.977,901.588,649.027,901.588,649.027z"/>
	<path fill="#131238" d="M917.667,738.703c9.306,2.19,74.219,1.197,82.686,0c8.467-1.196,0-6.706,0-6.706
		c-23.705,1.693-41.604-16.78-41.604-16.78c-23.549,10.873-36.259,5.032-36.259,5.032"/>
	<path fill="#131238" d="M863.768,699.824c0,0-20.32,16.152-11.285,24.162c9.021,8.011,7.898,2.93,27.092,8.011
		c19.183,5.079,29.343,5.264,29.343,5.264h8.228v-5.264l-8.632-4.387l-9.187-16.912l-12.424,4.519l-11.012-4.373L863.768,699.824z"
		/>
	<path fill="#DAA086" d="M1046.415,254.458l6.997,24.592c0,0-11.853-2.801-11.007-8.457c0.847-5.655-51.075,11.278-54.184,10.431
		c-3.108-0.847-11.536-6.423-11.979-11.254c-0.443-4.832,2.097-10.358,6.329-11.969c4.234-1.61,11.297-0.843,13.838-3.343
		c2.54-2.5,1.408-2.057,5.926-2.844c4.512-0.787,10.782-1.752,14.419,0c3.639,1.753,8.229,2.599,8.229,2.599l12.706,1.131h6.184
		L1046.415,254.458z"/>
	<path fill="#1C1C1C" d="M908.917,404.844c0,0-26.523,38.735-3.665,74.857c22.859,36.12,30.201,70.555,30.201,70.555
		s30.478,14.108,37.251,14.108s23.706-3.896,23.706-7.594s-8.188-92.594-8.188-92.594L908.917,404.844z"/>
	<path fill="#1C1C1C" d="M895.964,464.309c0,0-3.411,100.056,5.624,100.056c9.021,0,51.354,0,51.354,0l-2.686-7.594L895.964,464.309
		z"/>
	<path fill="#606060" d="M912.303,455.434c0,0-0.557,20.524,3.955,29.168c4.511,8.646,17.495,25.995,16.363,29.738
		c-1.123,3.744,0.074,8.679,0.074,8.679s0.536-26.524-10.205-33.793C911.746,481.957,912.303,455.434,912.303,455.434z"/>
	<path fill="#606060" d="M938.429,519.777c0,0,17.337,9.597,14.513,15.239c-2.818,5.641-6.768-16.378-3.943-17.786
		c2.818-1.409,10.16,0,10.16,0l-14.677-0.629l-6.053,0.629"/>
	<path fill="#606060" d="M908.917,495.503c0,0,15.198,34.592,15.226,40.439c0.006,3.188,0.681,7.149,1.296,10.101
		c0.511,2.461,0.979,4.213,0.979,4.213v-14.313L908.917,495.503z"/>
	<path fill="#EDEDED" d="M1024.058,305.857c0,0,3.388,10.729,11.854,14.678c8.467,3.949-15.808-1.128-20.882,0
		c-5.072,1.127,11.33-2.98,11.33-2.98"/>
	<polygon fill="#EDEDED" points="1014.057,336.902 1024.058,325.049 1035.911,330.975 1024.058,330.975 	"/>
	<polyline fill="#EDEDED" points="1015.029,353.652 1025.87,358.349 1026.32,367.016 1024.058,367.016 1031.969,361.127 
		1025.87,353.652 1024.058,349.006 	"/>
	<polyline fill="#EDEDED" points="1024.058,381.065 1030.262,385.884 1035.911,381.065 1030.831,375.001 	"/>
	<path fill="#EDEDED" d="M1037.69,347.312c0,0,2.995,6.565,0,10.7c-2.996,4.133,12.745-5.351,12.745-5.351l-4.92-11.807
		l-7.825,4.766"/>
	<polyline fill="#EDEDED" points="939.964,363.993 957.465,354.515 941.922,359.056 	"/>
	<path fill="#EDEDED" d="M939.395,402.211c0,0,12.884-1.598,14.063,8.82C954.628,421.449,943.688,398.289,939.395,402.211
		c-4.286,3.923,7.077-4.515,7.077-4.515s26.067-9.95,30.108-16.721c1.806-3.036,4.049-8.668,5.979-13.959
		c2.367-6.507,4.247-12.501,4.247-12.501l15.529-8.896l11.721-11.376l-29.5,15.712l-5.105,25.046l-20.293,10.883l-12.687,11.813"/>
	<path fill="#3A3A3A" d="M1036.479,288.363l2.262-5.646h-5.647l-9.035,16.798l11.854,14.247v6.773c0,0,16.595-14.544,20.438-12.352
		c3.836,2.192,0-5.712,0-5.712s-8.017-1.131-10.279,0c-2.248,1.131-10.158-10.222-10.158-10.222L1036.479,288.363z"/>
	<polygon fill="#3A3A3A" points="908.917,403.508 918.521,393.202 925.293,385.884 930.929,380.976 933.759,375.001 
		939.964,367.956 939.964,361.127 945.731,355.022 948.998,351.576 944.476,349.006 937.146,361.127 933.759,367.956 
		928.957,378.668 	"/>
	<polygon fill="#3A3A3A" points="916.258,409.57 923.031,400.12 928.957,393.202 937.701,385.884 940.532,385.884 943.919,380.976 
		948.998,371.332 954.079,361.127 960.283,349.006 972.704,358.349 958.59,379.289 944.481,397.696 928.957,411.669 
		926.418,418.274 	"/>
	<path fill="#3A3A3A" d="M939.395,428.619c0,0,45.162-55.877,45.162-59.688c0-3.809-37.251,63.366-35.559,66.182
		C950.692,437.931,939.395,428.619,939.395,428.619z"/>
	<path fill="#3A3A3A" d="M959.158,438.11l7.897-21.625l10.16-23.283l9.591-18.414l5.648-13.661c0,0,16.37-22.535,20.887-21.405
		c4.512,1.131,22.569-5.479,22.569-5.479l9.604,6.611l-21.458,8.152c0,0-5.635,2.57-11.283,5.957
		c-5.649,3.387-12.422,16.932-15.24,20.039c-2.817,3.104-4.511,11.568-4.511,13.826c0,2.26-0.568,11.293-0.568,11.293l-5.079,9.45
		l-8.468,19.049l-6.204,7.024v12.447L959.158,438.11z"/>
	<polygon fill="#3A3A3A" points="994.148,411.669 999.228,397.696 1007.694,393.202 1018.423,385.884 1021.24,381.065 
		1030.831,375.001 1037.049,368.931 1041.057,367.956 1041.057,358.349 1029.707,365.122 1017.603,371.895 1009.387,378.668 
		1002.336,385.011 999.228,385.884 999.228,393.202 992.455,400.12 	"/>
	<polygon fill="#3A3A3A" points="996.41,418.274 1004.309,416.485 1016.755,409.57 1024.058,402.211 1026.32,395.349 
		1030.831,388.265 1035.911,381.065 1024.058,391.168 1021.24,395.349 1020.115,399.669 1016.16,402.211 1007.125,404.844 
		1004.876,409.57 994.148,411.669 	"/>
</g>
</svg>
