<?xml version="1.0" encoding="utf-8"?>
<!-- Generator: Adobe Illustrator 15.0.2, SVG Export Plug-In . SVG Version: 6.00 Build 0)  -->
<!DOCTYPE svg PUBLIC "-//W3C//DTD SVG 1.1//EN" "http://www.w3.org/Graphics/SVG/1.1/DTD/svg11.dtd">
<svg version="1.1" id="Layer_1" xmlns="http://www.w3.org/2000/svg" xmlns:xlink="http://www.w3.org/1999/xlink" x="0px" y="0px"
	 width="1380.281px" height="720px" viewBox="0 0 1380.281 720" enable-background="new 0 0 1380.281 720" xml:space="preserve">
<g id="Layer_2_1_">
</g>
<g id="Layer_1_1_">
	
		<ellipse fill="none" stroke="#FF9C1B" stroke-width="40" stroke-miterlimit="10" cx="626.317" cy="358.835" rx="235.206" ry="235.211"/>
	<path fill="#AC5B3B" d="M430.439,237.796h8.469c0,0,4.512-1.657,4.512-3.093s4.922-9.229,4.922-9.229l6.973-14.741
		c0,0,14.356-14.792,16.817-16.022c2.461-1.23,9.025-22.559,9.025-22.559s20.51,0.991,21.739,5.213l-4.921,17.346
		c0,0-8.614,38.557-22.149,52.913l-2.052,12.305l-5.332,2.461l-31.809,14.196C436.634,276.585,423.199,254.22,430.439,237.796z"/>
	<polyline fill="#AC5B3B" points="454.084,168.378 471.312,130.015 437.944,116.903 427.013,140.077 428.296,182.189 	"/>
	<polyline fill="#BF7246" points="465.595,132.898 440.138,156.102 452.868,166.533 	"/>
	<path fill="#E85B54" d="M454.084,168.378h-5.624c0,0-20.218-15.997-21.447-28.302l-7.591,3.076v3.692l-3.486,4.307l-43.001,33.788
		c4.528,5.462,4.093,13.909-0.965,18.969c-5.512,5.51-14.484,5.371-20.013,0c-0.417-0.408-0.844-0.795-1.279-1.176
		c-0.071-0.047-0.145-0.089-0.216-0.138l-3.435,2.701l-8.305,10.459l4.152,11.074v6.769c0,0-16.765-1.231-16.765,43.068
		c0,0,3.691,38.147-9.844,51.681c-13.537,13.537-9.23,34.455-9.23,34.455s74.447,92.29,123.668,0c0,0,11.477-81.214,7.277-85.522
		c-4.2-4.306-4.2-4.306-4.2-4.306s-6.767-50.453-3.077-55.989c3.692-5.538,12.135-23.381,12.135-23.381l5.624-7.382l10.876-6.769
		L454.084,168.378z"/>
	<path fill="#A5312B" d="M338.723,289.586c0,0,19.38-11.691,34.147-27.071c14.765-15.383,18.689-18.458,20.727-18.458
		c2.037,0,10.651,0,10.651,0S350.932,295.066,338.723,289.586z"/>
	<path fill="#A5312B" d="M342.722,298.815c0,0,41.223-15.997,65.833-43.068c24.611-27.072,10.867-14.151,10.867-14.151
		S377.175,300.045,342.722,298.815z"/>
	<path fill="#A5312B" d="M347.027,307.428c0,0,65.421-20.917,72.395-43.068C419.422,264.36,416.552,292.046,347.027,307.428z"/>
	<path fill="#A5312B" d="M309.267,339.072c0,0,31.609-8.88,41.453-7.649c9.845,1.23,22.15-23.995,22.15-23.995
		s-12.92,29.533-25.842,35.071c-12.92,5.537-25.841,10.459-28.918,14.15c-3.076,3.691,15.964-20.048,24.612-18.458"/>
	<path fill="#A5312B" d="M324.879,368.954c0.615-2.461,26.007-35.294,33.614-36.72c7.607-1.425,24.732-24.806,24.732-24.806
		s-19.584,27.072-23.275,30.763C356.257,341.884,324.879,368.954,324.879,368.954z"/>
	<path fill="#A5312B" d="M341.068,368.954c0,0,54.321-58.23,49.029-65.833C384.805,295.52,408.324,316.042,341.068,368.954z"/>
	<path fill="#A5312B" d="M400.863,298.833c0,0,8.307-8.017,7.691-2.481c-0.617,5.538-6.427,53.695-3.829,60.687
		c2.598,6.994-11.13,15.607-11.13,15.607S409.17,299.469,400.863,298.833z"/>
	<path fill="#A5312B" d="M408.555,368.954c0,0,4.308-39.991,6.768-52.912s3.692-15.343,0-17.208"/>
	<path fill="none" stroke="#A5312B" stroke-miterlimit="10" d="M332.263,267.028c0,0-8.858,44.952,21.84,47.167
		c-3.299-0.435-2.191,7.763-0.052,11.69"/>
	<path fill="#A5312B" d="M351.039,203.064c0,0-7.702,8.998-4.011,11.152c3.692,2.153,10.018-0.706,12.922,0
		c2.903,0.704,2.708-2.997,2.708-2.997"/>
	<polyline fill="#000C00" points="341.068,164.572 341.068,171.256 344.721,181.857 344.721,185.424 342.894,194.158 
		344.721,197.164 347.027,201.511 351.951,202.662 355.714,206.524 359.949,206.524 362.409,206.524 361.662,201.511 
		361.013,197.164 359.949,185.548 359.949,178.291 359.949,178.291 351.74,171.256 342.589,164.572 	"/>
	<path fill="#EAC218" d="M307.036,362.802c0,0,41.223,56.605,95.982,37.532c0,0,32.608-31.994,27.686-37.532
		c-4.921-5.537,17.557,4.922,7.241,16.613c0,0,5.066,15.998,13.064,11.689c7.997-4.308,21.171,15.953,18.11,19.074
		c-3.061,3.12,2.194,51.989,2.194,51.989l-7.691,42.742l-4.283,126.147l-21.25,14.149l-4.307-14.765
		c0,0,10.979-20.225,14.316-25.704c3.338-5.481-13.342-29.02-4.411-48.997l14.091-49.887c5.843-0.944-0.903,11.084-19.834-2.611
		c-18.93-13.695-44.771-28.461-48.77-29.077c-4-0.617-12.612-2.77-12.612-2.77l-64.692,60.808l-91.586,40.097l-63.987,23.381
		h-28.028c0,0,3.417-15.787,10.802-15.433c7.383,0.356,10.458-1.531,10.458-1.531l16.612-16.109l21.483-11.21l18.484-9.599
		l8.639-8.687h9.844l11.69-8.498l10.736-8.221l2.801-9.621c0,0-1.846-7.307,0-7.651c1.844-0.345,1.844-0.345,1.844-0.345
		s3.693-4.754,4.922-9.453c1.232-4.699,4.307-10.805,4.307-10.805l3.73-9.891l4.885-2.53v-9.098l1.845-0.371v-5.23l2.807-3.692
		V443.4l2.115-8.204l6.482-2.562v-4.614l2.242-7.076v-4C284.999,416.944,278.12,374.493,307.036,362.802z"/>
	<path fill="#CEAB19" d="M304.576,435.197c0,0,62.141-10.254,84.291-21.943C411.016,401.563,350.72,443.606,304.576,435.197z"/>
	<path fill="#CEAB19" d="M393.596,418.176c0,0-29.533,27.071-44.511,27.687c-14.978,0.616-21.746,3.692-27.899,6.769
		c-6.152,3.077-16.611,8.169-16.611,8.169l38.761-21.122h14.766l38.147-21.501"/>
	<polyline fill="#CEAB19" points="321.187,457 342.106,449.555 369.794,442.786 372.87,445.862 359.333,449.895 350.412,453.861 
		349.086,456.63 	"/>
	<polygon fill="#CEAB19" points="329.186,474.164 340.274,469.511 379.022,453.246 	"/>
	<polyline fill="#CEAB19" points="291.731,516.395 379.022,456.63 335.376,482.874 	"/>
	<polyline fill="#CEAB19" points="304.576,521.307 372.87,463.705 304.576,526.377 	"/>
	<path fill="#CEAB19" d="M390.097,453.246c0,0,4.921-9.641,21.533-18.049"/>
	<path fill="#CEAB19" d="M393.596,453.246c0,0,27.265-21.534,33.417-20.611"/>
	<path fill="#CEAB19" d="M390.097,460.22c0,0,33.838-23.654,36.916-20.544"/>
	<path fill="#CEAB19" d="M400.863,466.098c0,0,35.708-23.927,37.081-23.312C439.318,443.4,400.863,466.098,400.863,466.098z"/>
	<path fill="#CEAB19" d="M443.686,458.407c0,0-20.365,22.091-20.365,24.461c0,2.371,23.996-24.461,23.996-24.461"/>
	<path fill="#CEAB19" d="M454.084,470.712c0,0-8.492,8.852-10.398,12.304c-1.906,3.453,0-11.62,0-11.62"/>
	<path fill="#EDEDED" d="M456.545,463.705c0,0-5.537-51.067,20.918-57.835c26.457-6.768,49.837,3.691,49.837,3.691
		s12.306,2.461,10.46,51.067c0,0,0,13.536-6.152,14.151c0,0,5.537,6.153,1.845,10.459c0,0,1.845,8.614-0.615,10.46
		c-2.461,1.845-0.616,62.142-14.767,81.215c0,0-13.536,35.07-14.765,38.762c-1.232,3.689-3.692,31.993-9.229,39.991
		c-5.537,7.998-5.537-7.383-7.999-9.845c-2.46-2.461-16.611-7.997-19.073-3.076c-2.46,4.922-7.731,11.337-10.94,15.206
		c-3.211,3.867-19.823,6.944-17.977-12.746c1.845-19.687,8.613-32.607,9.845-36.916c1.231-4.307-4.307-44.298-0.615-50.451
		c3.691-6.152,11.688-62.142,12.919-65.218c1.231-3.076-3.075-11.074,0-12.305c3.077-1.23,3.077-1.23,3.077-1.23
		s-6.768-2.462-4.309-6.153C461.467,469.242,449.777,466.781,456.545,463.705z"/>
	<path fill="#DBDBDB" d="M466.059,413.298c0,0,9.56-3.12,11.405-3.12c1.846,0,1.846,0,1.846,0v46.76c0,0-7.383,7.384-9.844,0
		c-2.462-7.383-3.41-40.607-3.41-40.607"/>
	<path fill="#DBDBDB" d="M482.386,410.178l14.458-1.538v43.375c0,0-8.921,11.998-14.458-1.23V410.178z"/>
	<path fill="#DBDBDB" d="M502.69,408.64l11.382,4.307v41.223c0,0-9.537,5.538-11.382,0C500.844,448.632,502.69,408.64,502.69,408.64
		z"/>
	<path fill="#DBDBDB" d="M517.457,413.254l8.306,2.152v39.07c0,0-7.383,5.537-9.537,0L517.457,413.254z"/>
	<path fill="#DBDBDB" d="M529.762,420.944l1.075,2.42l2.617,5.885v26.15c0,0-2.769,6.767-5.229,0L529.762,420.944z"/>
	<path fill="#DBDBDB" d="M459.622,464.321l11.69-2.154c0,0,53.529-3.076,56.912,0c3.384,3.075,5.229,4.308,5.229,4.308
		s2.768,4.921-2.616,4.921c-5.383,0-5.383,0-5.383,0s-51.067,0-54.451,0c-3.383,0-7.691,0-7.691,0S458.084,466.167,459.622,464.321z
		"/>
	<path fill="#DBDBDB" d="M463.621,474.164h64.603c0,0,3.693,3.999,0,7.691c-3.691,3.692-62.166-3.846-62.166-3.846L463.621,474.164z
		"/>
	<path fill="#DBDBDB" d="M466.059,482.874l62.166,3.288c0,0,3.384,8.613,0,9.536c-3.383,0.923-62.166-6.413-62.166-6.413
		S462.292,482.673,466.059,482.874z"/>
	<path fill="#DBDBDB" d="M525.761,501.852c0,0-25.121,123.669-29.02,123.976c-3.896,0.307-12.202,0-12.202,0
		s31.685-123.054,27.687-125.821C508.227,497.236,525.761,501.852,525.761,501.852z"/>
	<path fill="#DBDBDB" d="M507.971,499.122c0,0-23.739,125.782-28.661,125.782s-6.626-3.077-6.626-3.077l26.006-122.705
		c0,0,3.997-1.88,6.46,0"/>
	<path fill="#DBDBDB" d="M493.769,499.122c0,0-21.534,112.862-24.919,114.707c-3.382,1.847-9.511-6.46-9.511-6.46l19.973-109.083
		C479.31,498.285,492.538,495.774,493.769,499.122z"/>
	<path fill="#DBDBDB" d="M472.684,499.122l-15.831,104.249c0,0-5.845,3.075-5.845,0c0-3.078,13.377-104.249,13.377-104.249
		S473.047,496.731,472.684,499.122z"/>
	<path fill="#DBDBDB" d="M446.701,653.206c0,0,14.306-6.461,15.152-9.845c0.844-3.383,23.347-11.074,26.093-2.152
		c2.746,8.921,3.977,11.997,3.977,11.997s5.229-17.228,3.999-20.304s-46.145-7.074-44.914-12.305
		c1.231-5.231-11.992,25.532-5.537,32.608"/>
	<path fill="#EDEDED" d="M244.894,532.203c0,0,27.073-32.813,62.143-3.896c35.071,28.918,23.996,6.769,23.996,6.769l-10.459-2.873
		c0,0,17.484-3.58,14.765,2.873c-2.717,6.454,3.692,28.916-42.453,44.913c0,0-20.303,15.997-25.842,17.843
		c-5.536,1.847-89.212,31.038-94.75,28.132c0,0-19.689,16.783-27.07,14.937c-7.384-1.846-3.693-4.297-3.693-4.297
		s-17.843-11.699-21.535-11.699c-3.69,0-11.073-4.387-10.46-10.807c0.617-6.42,0.544-4.303-0.036-9.36
		c-0.578-5.06,36.953-13.674,40.644-16.134c3.692-2.462,75.062-44.3,78.754-41.838C232.589,549.227,238.126,531.175,244.894,532.203
		z"/>
	<path fill="#DBDBDB" d="M249.817,536.922c0,0,20.303-17.843,28.302-15.382c8,2.462-23.381,23.38-23.381,23.38L249.817,536.922z"/>
	<path fill="#DBDBDB" d="M256.584,547.996c0,0,28.919-23.381,34.455-20.304c5.537,3.076-23.921,25.331-26.418,28.048
		C262.123,558.456,256.584,547.996,256.584,547.996z"/>
	<path fill="#DBDBDB" d="M264.621,559.07c0,0,36.878-30.231,36.262-17.27c-0.614,12.964-26.725,27.73-26.725,27.73L264.621,559.07z"
		/>
	<path fill="#DBDBDB" d="M279.424,569.53c0,0,0.886-0.57,2.386-1.511c7.834-4.92,32.389-19.965,34.456-16.621
		c2.461,3.98-26.457,27.319-26.457,27.319l-9.497-9.758"/>
	<path fill="#DBDBDB" d="M244.279,538.572c0,0,32.438,44.404,38.476,44.493c6.037,0.091-1.56,3.691-5.867,3.076
		c-4.307-0.614-35.07-44.341-35.07-44.341L244.279,538.572z"/>
	<path fill="#DBDBDB" d="M239.358,544.92h-3.077c0,0,4.308,32.608,33.84,44.913l4.037-2.46
		C274.159,587.373,246.125,562.763,239.358,544.92z"/>
	<path fill="#DBDBDB" d="M233.512,548.918c0,0,7.766,25.229,31.109,43.686c0,0-3.421,2.769-8.037,3.075
		c-4.615,0.308-28.917-26.728-27.071-44.279C229.42,553.837,233.512,548.918,233.512,548.918z"/>
	<path fill="#DBDBDB" d="M154.143,626.75l0.635-0.202l0.647-0.205l91.591-29.124c0,0-2.123-7.692-5.198-7.385
		c-3.077,0.308-95.366,28.917-95.366,28.917l-1.846,1.251L154.143,626.75z"/>
	<polyline fill="#DBDBDB" points="127.38,618.136 237.512,586.213 231.667,578.718 115.997,608.286 128.303,620.002 	"/>
	<polyline fill="#DBDBDB" points="145.837,595.681 229.414,575.99 229.414,564.819 179.678,577.221 145.837,594.448 	"/>
	<polygon fill="#DBDBDB" points="187.625,572.301 224.591,562.393 222.56,552.918 	"/>
	<polygon fill="#AC5B3B" points="359.949,181.915 390.097,179.454 408.586,179.454 413.104,181.915 413.104,193.604 
		413.104,207.756 404.248,228.675 396.25,228.675 379.022,233.597 368.563,225.599 363.025,218.215 362.409,206.524 
		359.949,195.143 	"/>
	<path fill="#0A1838" d="M354.104,179.454c0,0,15.543,6.152,69.144,0l-5.595-5.536c0,0,1.361-42.455-21.404-43.686
		c-22.766-1.229-43.684,3.077-45.53,4.922c-1.846,1.845-11.953,20.919-8.13,30.147C346.414,174.531,354.104,179.454,354.104,179.454
		z"/>
	<path fill="none" stroke="#DDDDDD" stroke-miterlimit="10" d="M338.723,185.606c0,0-0.307-18.526,15.381-3.417l-5.018,34.18
		L338.723,185.606z"/>
	<line fill="none" stroke="#DDDDDD" stroke-miterlimit="10" x1="338.723" y1="185.606" x2="350.72" y2="185.606"/>
	<line fill="none" stroke="#DDDDDD" stroke-miterlimit="10" x1="342.722" y1="196.313" x2="350.72" y2="196.313"/>
	<path fill="none" stroke="#DDDDDD" stroke-miterlimit="10" d="M347.027,205.294l3.692,1.23c0,0,102.617-6.152,62.384-12.92"/>
	<path fill="none" stroke="#DDDDDD" stroke-miterlimit="10" d="M354.052,220.676c0,0,83.288-0.615,59.051-12.921"/>
	<path fill="none" stroke="#DDDDDD" stroke-miterlimit="10" d="M371,232.667c15.405-3.377,32.632-2.147,47.399-8.299
		c-3.692,0-6.152,0-9.844,0"/>
	<path fill="none" stroke="#DDDDDD" stroke-miterlimit="10" d="M350.72,216.37c0,0,54.257,56.605,71.735-6.152l0.793-30.764"/>
	<path fill="#BF7246" d="M493.052,200.065c0,0-13.537,37.838-18.459,41.531c-4.921,3.692-5.332,0-5.332,0L493.052,200.065z"/>
	<polygon fill="#BF7246" points="469.261,248.978 463.519,248.978 459.826,256.773 461.877,256.773 467.621,258.822 469.261,253.9 	
		"/>
	<polyline fill="#BF7246" points="493.052,176.258 484.438,203.064 479.105,214.217 475.413,216.37 	"/>
	<polygon fill="#BF7246" points="464.543,239.798 461.877,248.978 459.826,245.698 462.186,239.798 	"/>
	<polyline fill="#7198C8" points="493.052,121.004 512.33,121.004 484.232,103.98 475.413,104.733 	"/>
	<path fill="#FEF2EC" d="M489.581,123.146c0,0,21.517-4.833,29.721,0c0,0,94.34,52.163,100.494,49.006
		c6.151-3.157-41.429,0.138-41.429,0.138L489.581,123.146z"/>
	<path fill="#A49B5F" d="M578.367,172.289c0,0-4.921,4.088,0,8.6c4.922,4.514,37.327-1.435,37.327-1.435s8.222-5.984,4.101-7.302"/>
	<polyline fill="#878851" points="576.18,172.289 489.581,123.146 489.581,132.898 576.18,182.58 	"/>
	<path fill="#C9C9C9" d="M436.036,120.946l-4.512-17.17v-3.28l4.512-6.153l14.767-12.717c0,0,6.206-5.333,14.792-5.333
		c8.586,0,18.635,0,18.635,0l5.538,6.974l3.283,4.1v9.025c0,0-2.462-1.286-2.462,2.228c0,3.513,2.462,9.667,2.462,9.667
		l-8.821-1.232l-3.075-3.28l-9.844,1.642v4.1l-6.769,5.333l1.053,10.664l-1.053,4.5l-2.358,1.652h-10.972l-8.203-1.652
		L436.036,120.946z"/>
	<path fill="#090809" d="M432.438,99.251c0,0,11.393-0.396,13.854-3.269c2.462-2.87,8.614-7.022,8.614-7.022
		s8.611-5.283,16.406-5.283c7.793,0,9.845,0,9.845,0l3.075-2.051v-2.872l-3.075-2.46h-15.562l-7.26,2.871l-7.532,2.461l-7.136,6.146
		l-7.631,6.57L432.438,99.251z"/>
	<path fill="#090809" d="M443.01,121.823c0,0,11.074-22.558,19.277-23.789c0,0,22.56-11.485,24.611-8.613
		c2.051,2.87,5.743,3.69,0,9.022c0,0-13.125,3.233-17.638,6.948c-4.511,3.718-15.137,14.382-14.356,16.432
		c0.782,2.053-2.874,4.512-5.743,4.922C446.292,127.157,443.01,121.823,443.01,121.823z"/>
	<path fill="#E0E0E0" d="M486.49,142.334c0,0-12.308-12.716-7.795-30.354c-0.458,2.115-0.82-2.898-9.433-4.114
		c2.051,1.653-11.893,20.521,8.613,34.468C477.875,142.334,485.669,148.486,486.49,142.334z"/>
	<path fill="#DBDAD9" d="M478.694,111.979c0,0,8.604-6.561,11.276,1.643c2.672,8.202-7.584,18.867,7.182,23.79
		c0,0-1.886,11.319-7.182,9.433C484.673,144.961,472.548,114.457,478.694,111.979z"/>
	<path fill="#DBDAD9" d="M498.794,102.134c0,0,18.457,9.845,16.405,17.639c0,0,6.153,4.922,6.974,2.873
		c0.82-2.053-14.763-23.82-19.277-23.395C498.382,99.674,498.794,102.134,498.794,102.134z"/>
	<path fill="#E8E8E8" d="M498.785,99.251c0,0,24.603,11.507,22.971,21.758l13.543,9.006c0,0,5.948-25.417-22.559-36.902
		C500.024,88.6,498.785,99.251,498.785,99.251z"/>
</g>
<g id="Layer_3">
</g>
</svg>
