<?xml version="1.0" encoding="utf-8"?>
<!-- Generator: Adobe Illustrator 15.0.2, SVG Export Plug-In . SVG Version: 6.00 Build 0)  -->
<!DOCTYPE svg PUBLIC "-//W3C//DTD SVG 1.1//EN" "http://www.w3.org/Graphics/SVG/1.1/DTD/svg11.dtd">
<svg version="1.1" xmlns="http://www.w3.org/2000/svg" xmlns:xlink="http://www.w3.org/1999/xlink" x="0px" y="0px"
	 width="1380.28px" height="720px" viewBox="-50 10 1380.28 720" enable-background="new -50 10 1380.28 720" xml:space="preserve">
<g id="Layer_2_1_">
</g>
<g id="Layer_1">
	
		<ellipse fill="none" stroke="#FF9C1B" stroke-width="40" stroke-miterlimit="10" cx="647.535" cy="358.857" rx="273.989" ry="273.995"/>
	<path fill="#0A0C0C" d="M824.568,73.757c0,0-9.516-2.731-11.758-3.74c-2.242-1.01-14.909,2.49-16.409,4.49s0.316,4.068,0.356,4.545
		c0.04,0.476-4.126,9.524-4.126,9.524l-5.355,1.444c0,0-2.446,5.735-4.028,7.758c-1.582,2.021-4.18,4.537-4.18,4.537l-1.834-0.309
		l-4.604-5.984c0,0-3.229-5.183-7.063-3.266s-4,6.75-4,6.75s1.971,11.584,5,13.25s0.224,7.834,0.224,7.834l-3.167,9.578
		c0,0-28.89-43.662,3.943-67.662S836.401,56.507,824.568,73.757z"/>
	<path fill="#0A0C0C" d="M763.292,66.06l-12.974-10.386l-6.416,2l-3.668,4.5v2.833l-13.666,6.167l-2.334,7.833l-2.332,3.167
		c0,0-5.334,2.333-5.834,2.667c-0.133,0.088-0.532,0.269-1.049,0.487c-1.438,0.61-3.785,1.513-3.785,1.513v3.697l9.168-5.197
		l4.832-0.667l0.334,4.5c0,0-1.5,2.561-1.5,3.53s-1.5,7.754-1.166,9.611c0.332,1.858,0.5,5.358,1.5,6.858s1.999,4.667,2.332,5.167
		c0.334,0.5,2,3.083,2,3.083l-0.166-3.917l1-1.166l0.166,6.458c0,0-0.666,3.037,0.168,3.372c0.832,0.336,1,3.517,1,3.517
		l2.332-5.931l-0.332,4.833l1.166,10.608l1,3.143c0,0-0.166-4.959-0.166-5.479s0.166-6.33,0.166-6.33l2.195-1.941v8.271
		c0,0,2.305,1.36,2.471,2.337c0.168,0.976,0.168,0.976,0.168,0.976l1,1.333c0,0-0.834,1.148-0.668,2.24
		c0.168,1.094,1.501,2.426,2.168,2.76c0.666,0.334,4.166,1.167,4.166,1.167l5.311-1.167v1.167l3.355-2.667
		c0,0,1.334-4.951,1.5-5.809c0.168-0.857,3.5-5.924,3.5-5.924l-0.332,5.066l1.246,0.857l0.832-1.652l1.645-3.377"/>
	<path fill="#7F7469" d="M764.235,690.841c0,0,19.691,7,21.846-4s-1.513-14.001-1.513-16.667s-1.333-10.668-1.333-10.668
		s-1.887-4.313-2.472-4.854s-12.205-3.672-12.205-3.672l-12.99,2.861l-8.732,4c0,0-1.601,6-1.601,7s0.2,8.667,1.601,10.667
		c1.399,2,6.066,5.333,7.066,6.333s5,4.667,5,4.667l2.666,4l2,2.528"/>
	<path fill="#7F7469" d="M786.759,677.508c0,0,14.811,3.667,21.144-21s0-28,0-28l1-21v-11l-3.334-5h-1.333l-2-2.667l-2.167,0.166
		l-6.5,36.167l-3,11.667l-4.666,6.665l-1.61,12.188v9.479l2.467,6.834"/>
	<path fill="#F09D70" d="M777.568,418.507c0,0,5.658,31.305,3.329,41.652s-9.329,103.348-9.329,103.348l7.5,60l2.392,24.5
		l24.608-12.5l-7-30c0,0,3-8.5,1-16.5s23.5-34.5,21.5-81.5c0,0,9.793-69.695,22.646-84.348s0-21.652,0-21.652h-58.134
		L777.568,418.507z"/>
	<path fill="#FFAE76" d="M707.764,403.874c0,0,26.139,80.299,29.139,85.299s2.666,32,2.666,36s-5.333,42.667,2.334,57.667
		c7.666,15,12.332,37.334,13.666,41s5.334,28,5.334,28s20-4.668,22.333,7.666c0,0,3.667-12,2.667-16s-2.668-7.332-3.334-10.666
		s1.667-50.334,1.667-53.334s-1.666-20.666-4.333-27.666s6.013-46.334,6.173-49.334s-3.173-39.667-6.84-48
		s-1.667-35.999-1.667-35.999s1.786-12.425-3.5-14.633s-23.5-16.692-23.5-16.692l-39,10.825l-3.979,3.498"/>
	<path d="M704.568,355.507l-4,5.667l2,3.666c0,0,0.666,7.001,2,9.334s3.334,31.666,3.334,31.666s44.666-21,66.333,0
		c0,0,3.333,8.334,3.333,12.667s37.334,9.333,44.334,9s24.667-0.333,30-12.333V400.84c0,0-2-3.667,0-7s0-12.666,0-12.666l-2-13
		l-29.334-8l-88.333-13.334L704.568,355.507z"/>
	<path fill="#FFC288" d="M698.568,210.507c0,0-0.667,16.667-4,18s-10.333,31.175-10.333,32.254s-2.334,34.08-8.667,36.746l-6,6.333
		v3l-2,2v20h10.334l6.666-4.667l8,0.334l0.667-6l-0.667-2.667l-9.5-6.667v-7.666l5.834,1l1,6.333c0,0,7.332,4.334,8.666,1.667
		s0-9.334,0-9.334v-5.333l-2.333-2c0,0,7.667-20.667,12.667-24.167s13-26.166,13-28.166s1.091-7.131,1.091-7.131v-23.869H698.568z"
		/>
	<path fill="#F4A156" d="M852.568,245.507c0,0,26.668,51.334,35.334,46s6.666-10.667,6.666-10.667s10.001-3.333-12.666-48.667
		c-22.667-45.333-29.111-15.666-29.111-15.666L852.568,245.507z"/>
	<path fill="#FFDD23" d="M754.568,147.507l-48,21l-8,18v15v9c0,0,6,24,22,17l6,17v35c0,0-8,18-6,23s-12,32-12,32l-4,21
		c0,0,29,4.001,29,5.667s16,1.334,17,9l23.667,2l44.333,2.666c0,0,27.334,4.334,31.334-6.666l-2-5.667l-1.667-10
		c0,0,1.666-8-0.667-13.334c0,0-3-15.666-1.333-16c1.667-0.332-2.667-10.666-2.667-10.666s1.334-23.667-4.666-25.334
		c-6-1.666,1.333-21,1.333-21l1.333-4.578c0,0-3.332-19.754,7.334-27.088l5.666,11c0,0,3.334-18.667,25.667-17.334l3.667,4l9-12.332
		c0,0-18.334-26-18.667-27.334s-8.333-9-10.333-10s-9.334-9.334-9.334-10.334s-33.666-20.332-36.333-20.666
		s-11.667-5.666-11.667-5.666s-1.667,22.666-33,23.332C753.235,169.507,753.568,149.841,754.568,147.507z"/>
	<path fill="#FFAE76" d="M791.568,227.507c0,0,22,20.666,32,18.666c0,0,49.666,51.111,62,45.723s9-11.056,9-11.056
		s0.666-22.999-13-26.333s-48.666-17.667-51.333-21.334c-2.667-3.666-14-5.666-14-5.666l-15.333-11.667l-14-8.866l-7-2.467h-10.667
		c0,0,4.222,5.667,7.444,6s7.889,0,7.889,0l2.334,5.333l-13.667,4c0,0,1.334,1.667,1.667,2.667s-5.667,9.333-5.667,9.333l2.333,2
		l9.667-7.667L791.568,227.507z"/>
	<path fill="#FFDAC0" d="M754.568,147.507c0,0,11.5-20.5,12-25s1.25-9.5,1.25-9.5l3.75-10l8.5-1.5c0,0,5.25-5,5.25-8.75s5-3,6-3.25
		s6.75-5.5,5.25-11.5s11.75-5,13.25-7.25s6.5,1.25,8.75,2.25s6,0.75,6,0.75s3,8.5,2.75,13.25s1.75,8.5,1.75,8.5v5v3.75
		c0,0-0.75,11.5,0,12.75s-2.75,7.5-3.75,8.25s-7.25,10-7.5,10.75s-1.25,6-2.25,7.5s-12,2.334-12,2.334l8.75,21.666l-34.75,9
		l-27.25-14.5v-10.25L754.568,147.507z"/>
	<path fill="#CB6E3E" d="M1010.568,234.401c0,0-1,28.605,0,33.855s-3.5,15.75-3.5,15.75"/>
	<path fill="#FFC100" d="M728.902,248.4c0,0,11.499,19.774,21.416,26.44s18.25,12.667,18.917,15.334
		c0.667,2.666,2.333,13.332,2.333,13.332"/>
	<path fill="#FFC100" d="M731.235,264.507c0,0,16.667,16.001,23,21.668c6.333,5.666,16.333,21.999,17.333,23.332
		c1,1.334,5.111,10.668,5.111,10.668"/>
	<path fill="#FFC100" d="M731.235,281.507c0,0,16.333,31,26.333,37.334s9.334,12.334,9.334,12.334"/>
	<path fill="#FFC100" d="M728.902,287.507c0,0,13.333,21,15.333,24s5,11.334,8,12.668c3,1.332,10.667,11,10.667,11"/>
	<path fill="#FFC100" d="M722.993,303.507c0,0,3.575,13.668,10.575,16.668s14.334,8.665,14.334,8.665"/>
	<path fill="#FFC100" d="M713.902,338.507c0,0,90.333,30.668,114.333,22.001S810.235,379.841,713.902,338.507z"/>
	<path fill="#FFC100" d="M746.836,355.841c0,0,83.066,21.668,96.066,7.667S831.103,389.841,746.836,355.841z"/>
	<path fill="#FFC100" d="M713.902,342.507c0,0,10.333,8.666,15,8"/>
	<path fill="#FFC100" d="M707.59,348.507c0,0,19.172,5.45,23.646,2"/>
	<path fill="#FFC100" d="M783.568,252.175c0,0,11,34.332,22,52.666"/>
	<path fill="#FFC100" d="M798.568,244.841c0,0,30.875,23.561,30.604,31.113s0,8.887,0,8.887S833.234,267.507,798.568,244.841z"/>
	<path fill="#FFC100" d="M815.568,248.4c0,0,19.354,21.276,16.539,27.554"/>
	<path fill="#FFC100" d="M832.107,192.841c-2.461,4.334,3.128,31.334,3.128,31.334"/>
	<path fill="#FFC100" d="M848.568,174.507c0,0-11.333,4-13.333,14"/>
	<path fill="#FFC100" d="M844.568,188.507c0,0-5.924,12.13-8,22"/>
	<path fill="#FFC100" d="M856.902,196.507c0,0-24.486,12.125-23.544,17.482"/>
	<path fill="#FFC100" d="M715.902,181.507c0,0,28.666-14.334,34.333-5l-4.333,0.922c0,0-28.668,1.746-32.334,5.412"/>
	<path fill="#FFC100" d="M709.235,192.841c0,0,10.516,14.265,13.758,14.133"/>
	<path fill="#F2A26E" d="M766.911,125.688c0,0,0.991,23.819,2.324,27.153s1.999,9,2.333,10s0,4.666,0,4.666"/>
	<path fill="#F2A26E" d="M776.68,118.799c0,0-0.044,1.53-0.073,3.376c-0.036,2.344-0.051,5.196,0.073,6.082
		c0.223,1.584,3.222,4.965,6.889,6.941s3.667,1.977,3.667,1.977l5,2.572l2.333,3.927c0,0-7.322-10.792-8.994-10.813
		s-4.006-1.698-4.339-2.692s-2.167-3.828-2.167-3.828L776.68,118.799z"/>
	<path fill="#9F5417" d="M802.402,146.598h-11.167l7.583,9.243C798.818,155.841,803.236,151.688,802.402,146.598z"/>
	<path fill="#A16037" d="M698.568,213.989l-3.287,16.518c0,0,26.152,17.321,20.833,27.245s6.879-23.376,6.879-23.376l-2.425-6.869
		C720.568,227.507,704.901,233.138,698.568,213.989z"/>
	<path fill="#B0785F" d="M799.741,425.19c0,0,36.063,4.368,41.729-0.755s-6.852,19.849-8.02,24.133s-8.81,39.949-9.255,42.541
		s-0.674,3.944-0.674,3.944s-1.999,11.087-1.953,12.453s0.052,8.991,0.052,8.991s-5.564,32.846-6.88,36.424
		s-2.172-5.748-2.172-7.748s0.334-10.333,0.334-10.333v-4c0,0-1.642,2.667-2.154,4s-3.18,3.667-3.18,3.667l-7.827-6.667
		l-5.006-8.497v-7.17l10.167,4l5.846-3.666c0,0,2.487-6.334,2.487-7.334s1-8,1-8l2.333-8.666l4.667-13.667l1.333-16l7-19.667v-2.333
		l-0.333-4.333l-7.333-3.334l-11.154-2.333l-8.846-3.318L799.741,425.19z"/>
	<path fill="#E68863" d="M750.235,515.174c0,0,20.005,7.666,25.169,0s5.164-13.666,6.164-18.333s-2-11-2-11
		s-2.659,11.684-2.889,14.337s1.234,3.168-0.438,5.082s-2.339,2.914-3.006,4.581s-1.667,3-1.667,3s-1,0.666-3,1.333
		s-7.666,0.667-7.666,0.667L750.235,515.174z"/>
	<path fill="#4E2E27" d="M745.902,372.757c0,0,15.833,13.25,17,15.75c1.166,2.5-9.084-4.75-11.584-3.5s13.936,4.5,15.593,6.75
		s6.157,7,6.157,7.75s-1.5-3.75-1.5-3.75v-3.25l-1.75-2c0,0,1-0.75,1.75-0.75s1.5,1.5,1.5,1.5l-6.157-6l-2.343-2l4-0.25l4.5,1.5
		c0,0-5-3.75-7.75-5s-7.5-6.75-7.5-6.75l-1.429-2.091l3.096,5.016l3.417,4.075l-4.584-4.075l-3.25-1.175l-5.995-3.841l11.995,11.341
		l-15.166-10.25"/>
	<path fill="#4E2E27" d="M776.68,387.182c0,0,10.389-8.425,13.639-8.425"/>
	<path fill="#4E2E27" d="M779.318,388.757c0,0,17-6,26-11.5"/>
	<path fill="#4E2E27" d="M779.318,395.007c0.5,0,11.584-0.756,15.417-9.878"/>
	<polyline fill="#4E2E27" points="776.68,401.507 787.027,396.507 808.068,396.507 	"/>
	<polygon fill="#4E2E27" points="704.568,365.507 712.318,372.007 708.443,372.007 	"/>
	<path fill="#4E2E27" d="M704.568,362.051c0,0,7-4.294,11-1.794"/>
	<path fill="#4E2E27" d="M842.935,385.129c0,0-1.866,5.878-11.866,7.878"/>
	<path fill="#4E2E27" d="M783.499,413.507c0,0,56.933,3.815,59.436,6"/>
	<path fill="#4E2E27" d="M779.318,405.007c0,0,7.75,3.75,28.75,3.75"/>
	<path fill="none" stroke="#4E2E27" stroke-miterlimit="10" d="M765.818,395.007c0,0-23-11.25-55.75,1.5"/>
	<path fill="#794427" d="M826.068,120.591c0,0-9.75,13.583-10.75,18.333S815.568,126.591,826.068,120.591z"/>
	<path fill="#FDEFE3" d="M804.249,125.688c0,0,11.585,5.677,12.494,5.081c0.909-0.595-0.925,2.072-0.925,2.072
		S808.43,133.618,804.249,125.688z"/>
	<path fill="#FDEFE3" d="M803.735,125.591c0,0,13.516,2.499,13.008,3.916s2.075-2.75,2.075-2.75s-5.582-3.24-13.416-3.495"/>
	<path fill="#FFD2AC" d="M779.068,106.257c0,0-0.229-0.328-0.597-0.859c-1.391-2.014-4.758-6.954-5.153-8.141
		c-0.5-1.5-3.5-4.5-3.5-4.5s-3.5,0.75-4.25,0s-4,6.75-4,6.75l1.5,6.75l3.5,6.5l5,2.75h3.25l0.5-3l1.25-1.75l2.5-2.5"/>
	<path fill="#59422B" d="M803.068,100.757c0,0,12.75-7.75,9.25,1.75C816.568,99.507,805.068,99.257,803.068,100.757z"/>
	<path fill="#59422B" d="M822.818,104.105c0,0,1-6.849,5.25-1.599C829.068,98.507,822.818,104.105,822.818,104.105z"/>
	<path fill="#59422B" d="M815.818,97.778l1.25-1.271c0,0-3.064-3.5-8.907-1.75"/>
	<path fill="#59422B" d="M822.818,99.007c0,0,4.467-3.958,5.358-1.229"/>
	<path fill="#C9743F" d="M815.818,111.257c0,0-1.171,0-2.565,0.447c-1.558,0.501-3.394,1.561-4.185,3.803c-1.5,4.25-5,4.5-6,4.5
		s-4.25,8.25-4.25,8.25l5.5-6.75c0,0,5-2.5,5.5-3.25s2.797-3.75,2.797-3.75L815.818,111.257z"/>
	<path fill="none" stroke="#FFDFBF" stroke-miterlimit="10" d="M822.818,97.257c0,0-1.75,3.834-1.833,4.334s-0.417,2.416,0,3.416
		s1.917,3.334,2.417,4.334s2.025,3.166,2.096,3.833s-0.237,2.417,0,2.667"/>
	<polygon fill="#8C3811" points="815.318,117.841 820.152,117.424 821.235,119.007 820.78,119.757 817.818,120.174 817.485,119.757 
		815.318,118.341 	"/>
	<path fill="#E47154" d="M804.818,123.262c0,0,14.583,2.495,14,3.495s2.257-1.25,1.962-2.083s-1.462-2.083-1.462-2.083
		s-1.583-0.417-1.833-0.417s-11.001-0.083-12.667,0.75"/>
	<path fill="#E47154" d="M802.402,126.341c0,0,8.221,7.143,13.416,5.916c1.417,0.167,1.416,3.584-1.5,2.834
		S806.069,132.924,802.402,126.341z"/>
	<path fill="#FFA072" d="M1023.569,435.84c0,0,9,56.668,14,67.334c0,0-9.334,4-9.667,16.333c0,0,3.999,20,4.333,23s-1.666,7-1.666,7
		l-1.334,6.333c0,0,16.667,22.001,27.667,7.334c0,0,1.001-20.001,4.667-20.334s11.334-5.666,12-8.333s6.667-15.333,7-16.333
		s3-14.667,3-20.667s0-27,0-27s4.332-25.667,4.666-26.667s2.751-11.163,2.751-11.163l-30.084-9.837"/>
	<path fill="#FFAD84" d="M1092.568,415.174c0,0,1.668,77.707,2.001,80.354s-3,24.313,0,36.979c0,0,4.023,16-0.988,25
		s-1.15,60.333,0.752,66.333s2.291,31.333,1.764,35s-2.385,12.667-2.385,12.667s18.857-9.001,25.857,9.333
		c0,0-1.668-11,1.666-24.333s9.333-41.333,12-47.333s11.334-52.334,3.667-69.334s4.334-54.666,8.667-63.333
		s14.48-43.023,15.24-65.512s-27.574-15.716-27.574-15.716l-26.333,5.895l-14,12.666"/>
	<path fill="#B8B2AD" d="M1020.901,366.174c0,0-4.666,41.666-2.666,63.333s53.332,9.334,57.666,6.334s8.334-6,11.667-4.667
		s5,2.333,5,2.333v-11.666v-6.667l2.333-3.333l1.583-2.334l14.751-3c0,0,7.667-2.787,18-2.394s22.667-1.061,24,0
		s11,10.061,11,10.061v-31.145v-6.188l-2-6v-2l2-7v-2.334l-1.667-4.333l-26.333-6.667l-85.667,14.334L1020.901,366.174z"/>
	<path fill="#FF4050" d="M1075.068,149.007l-50.5,9.5c0,0-7.5,14.501-7.5,16c0,1.5-4.5,9.501-5,14c-0.5,4.5-12,30.5-12,30.5l10.5,9
		c0,0,16.5,19.5,27,12l2.5,12.168c0,0-5.333,4.832-1.5,18.332c0,0-1.166,17-1.833,18.5s-8.001,33.667-8.334,34.834
		c-0.333,1.166-0.666,8.666-0.666,8.666s-2.834,22.834-2.667,24.167s-4.667,11.667-1.5,14.5s3.167,2.667,4.167,3.167
		s10.167,7.167,20.5,8s41.167,1,45,0s13.667-2.001,15.5-3.334s8-4.666,8-4.666s9.666-3.167,10.166-3.167s7.334-6.166,12.834-7.333
		s7.666-2.833,9.666-3s10.333-5,11.5-5s-4.834-11.334-4.5-16.5c0.334-5.167-1.832-9.667-2.166-10.667s-1.667-4.333-1.667-4.333
		s6.833-4.334,6.833-6.334s0.667-13.166,0.667-13.166s0.634-28.834,0.983-30.667s3.017-3.167,3.017-3.167
		s-2.834-11.333-3.167-13.666c-0.333-2.334-1.166-8.5-1.166-8.5s-0.334-7.667,0.166-8.5c0.5-0.834,2.334-7.834,2.834-9.334
		s0.334,0.333,0.5-1.5s0.833,3.667,0.833,3.667s13.001,6.001,17.667-3.333s4.666-9.334,4.666-9.334l1.167-6.333l4.167-5.833
		l1.166-1.667l-3.333-11.333c0,0-0.833-4-0.833-4.834c0-0.833-1.001-3.833-1.334-5.5c-0.333-1.666-1-8.333-1-8.333
		s-10.166-13.666-12.666-14.333s-7.834-1-7.834-1l-35.166-13.834l-5.834-1.5c0,0,6.333,15.334-14.5,29.834
		S1075.068,150.507,1075.068,149.007z"/>
	<path fill="#FD9560" d="M1069.901,315.507c0,0-20.666,1.667-31.333-17.333c0,0,0.333-10.001-1.667-13.667
		s-5.333-8.333-5.333-10.333s0-9.655,0-9.655l0.667-1.678c0,0,5.333-17.667,5.333-20.667c0-0.284-0.105-0.58-0.28-0.884
		c-2.878,0.139-5.717-0.043-8.496-0.699c-1.797-0.195-3.332-0.763-4.626-1.582c-0.49-0.224-0.979-0.459-1.464-0.721
		c-2.776-1.491-5.219-3.432-7.438-5.613c-3.105-1.08-5.21-3.4-6.286-6.179l-1.409-0.655c0,0-1.666,36.689-2.333,38.678
		s-2,14.988-1.667,16.988s7.667,18.333,9,20s20.999,25,23.333,26.667s2.334,1.667,2.334,1.667h2.666l2.334,15.666l18.666,8.667
		v-3.667h2.667v-6l3.333-3.333l1.334-2l6-4v-4l3-1.667v-3C1078.235,326.507,1075.567,327.173,1069.901,315.507z"/>
	<path fill="#BD6940" d="M1186.401,220.507l1.834,30.667c0,0-26.334,8.999-24.167,19.833s-9.833-29.834-1.333-40l1.333,2.167
		c0,0,9.752,3.959,13.328,0.95s7.972-11.551,7.972-11.551L1186.401,220.507z"/>
	<path fill="#FCA283" d="M1164.068,271.007c0,0,12.167,23.167,21.5,22.167c0,0,0.667,3.667,0,5.667s1.334,3.999,2.667,5.666
		s16,12.667,16,12.667l11-10v-3.333l1.666-2.667v-4l-2-3.083v-4.084h-2.333l-1.333-1.833c0,0-5.668-6-7.334-7.333
		c-1.666-1.334-4.666-5.667-4.666-5.667s-7.817-23.208-11-23S1164.901,259.84,1164.068,271.007z"/>
	<polygon fill="#9D564A" points="1196.901,298.174 1196.901,297.757 1196.901,296.84 1196.901,293.507 1199.235,290.007 
		1199.235,294.091 1199.235,295.841 	"/>
	<polygon fill="#9D564A" points="1193.693,305.757 1201.568,305.757 1209.068,299.507 1212.693,295.882 1214.568,295.882 
		1211.318,299.007 1209.693,302.257 1208.693,303.382 1205.193,306.507 1202.443,307.632 1199.818,308.632 1193.693,307.757 
		1190.484,305.507 	"/>
	<polygon fill="#9D564A" points="1205.568,308.007 1210.068,304.507 1210.068,307.382 1214.568,303.882 1214.568,305.944 
		1211.318,309.757 1203.608,316.702 1201.943,314.257 1207.193,310.292 	"/>
	<path fill="#9D564A" d="M1183.568,284.007c0,0,10.375-15.375,18.375-2.75c0,0-5.375-17.25-18.375,2.25"/>
	<path fill="#891B22" d="M1027.902,557.507c0,0,20.333,19.001,29,5.667c0,0,2.333,38,2.333,39.333s-4.999,23.667-17.666,22
		s-20.667-24.666-19.667-27.333s0.001-18.001,1.667-22.334s4-12,4-12L1027.902,557.507z"/>
	<path fill="#F9F6F0" d="M1023.569,598.507c0,0,16.999,32,35.666,4C1058.053,604.195,1045.903,655.84,1023.569,598.507z"/>
	<path fill="#891B22" d="M1078.569,698.174c0,0,6.501-10.334,12.417-17.334s0.126-8,0.126-8s30.124-7.332,31.457,14.334
		c0,0-3,11.999-2.667,17.666"/>
	
		<ellipse transform="matrix(0.9775 0.211 -0.211 0.9775 173.1346 -216.2335)" fill="#D2BDA5" cx="1099.764" cy="703.133" rx="21.888" ry="9.919"/>
	<path fill="#FF9667" d="M1100.568,95.257c0,0-15,17-39,13.25c0,0,1.75,8,0,8.75s2.75,5.75,2.75,5.75s0.75,12.75,0.25,15
		s3.96,4.538,6,8c2.04,3.463,11.475,18.24,12.415,19.635s5.669,2.388,4.835,3.865s1.286,3.964,2.999,5.251
		s16.335,13.055,26.668-4.849c10.333-17.902,8.152-20.77,8.152-20.77l-2.069-5.383c0,0-2.25-7.5-2.25-9s0.25-7.75,0.25-7.75
		s-2-3.25-2.25-4s-1.25-5.75-1.25-5.75l-2.5,7.25l-2.25-10.25l-4-6l-2-3.5l-5.25-4.75L1100.568,95.257z"/>
	<path fill="#933923" d="M1089.318,168.757c0,0,25.25-14.5,28.25-21.5s3.25,0,3,2s-2.5,11.25-2.5,11.25l-6.25,2c0,0-4,7.75-4,8.75
		s-2.838,5.25-2.838,5.25S1091.068,183.007,1089.318,168.757z"/>
	<path fill="#884D2E" d="M1083.318,123.507c0,0,8-5.5,16.75-3.5l-12.75,3.5H1083.318z"/>
	<path fill="#884D2E" d="M1073.818,124.507c0,0-10.375-7.75-11.313-7.5s-1.863,1.125,0.6,4.531"/>
	<path fill="#6C3222" d="M1087.568,126.257c0,0,6.5,4.5,11-0.938C1098.568,125.319,1095.943,136.319,1087.568,126.257z"/>
	<path fill="#432719" d="M1065.631,123.507c0,0,6.625,2.688,7.625,3.125s2.063,1.277,2.063,1.277l-1.063,1.473l-3.188,1.116
		c0,0-5.688-3.929-5.438-7.304"/>
	<path fill="#F6D7BA" d="M1080.204,150.803c0,0,3.666,3.321,5.708,2.595c2.041-0.728,9.479-5.014,10.137-5.328
		c0.659-0.313-6.396,7.225-6.98,7.535c-0.584,0.309-6.995,2.291-8.877-5.019"/>
	<path fill="#FD8879" d="M1081.026,156.166c0,0,8.299,0.872,15.478-6.237C1103.682,142.817,1085.739,165.825,1081.026,156.166z"/>
	<path fill="#FD8879" d="M1080.113,151.083l2.122-1.326l1.5,0.663l2.833-1.747c0,0,7.917,0.594,9.965-1.701
		C1098.581,144.679,1086.325,157.243,1080.113,151.083z"/>
	<path fill="#A34B30" d="M1088.438,140.257l9.113,5.039c0,0,9.518,0.25,9.768-2.52S1106.739,155.173,1088.438,140.257z"/>
	<path fill="#C07660" d="M1076.318,130.498c0,0,0.25,9.759-1,9.759s-2.5,3.958-2.5,3.958l1,3.846l-2.5-4.47v-3.334l2.5-0.978"/>
	<path fill="#1C140F" d="M1061.164,108.257c0,0,25.904,5.75,38.904-11.5c0,0,3.293,4.42,5.271,6.21s3.671,4.829,5.171,7.079
		s2.058,5.199,2.058,6.955s1.25,6.193,1.25,6.193l2.095,0.313c0,0,2.738-3.404,2.628-3.938c-0.11-0.534,2.101-2.568,2.101-2.568
		v-4.744l3.427-3.5l5-3.5v-6.75l1.25-8l2.5-5.5v-9.25v-8.75l-8.75-2.75l-3.427,2l-3.073-2l-2.75-5.5l-3.25-2l-4.219-3.5l-3.531-2.75
		c0,0-3.6,0-5.925,0s-17.702,2.75-17.702,2.75l-2.373,1.25l-7.348,5.5l-6.402,4.5l-5,7.5c0,0-2.75,5.75-3,7s-1.75,6.5-1.75,6.5
		l-2.5,4v4.75l2.75,1c0,0,3.5,5,3.5,5.75s0,4,0,4l3.096,2V108.257z"/>
	<polyline fill="#C27352" points="1120.191,126.862 1118.014,119.638 1120.191,114.612 1122.846,109.782 1124.632,108.309 
		1127.893,108.309 1132.818,110.641 1131.263,114.86 1129.708,119.638 1127.374,121.593 1125.416,124.54 1121.116,127.917 
		1121.073,129.013 	"/>
	<path fill="#FF0124" d="M1039.068,168.257c0,0,15.859,1.25,26.555,4.75s12.612,4.979,12.612,4.979s0.329-0.262,1.956,1.755
		c1.627,2.016,13.424,8.266,15.9,9.766s19.617,4.5,21.922,5.25s14.805,1.5,14.805,1.5"/>
	<path fill="#FF0124" d="M1032.568,176.257c0,0,22.5,11.75,23.5,12.25s8,2,11.75,6.25s6.791,5.75,8.521,7.75s-1.524,3,3.853,3.25
		s9.41,0,9.41,0"/>
	<path fill="#FF0124" d="M1029.818,187.757c0,0,8.25,2.75,12.25,5.75s8.5,3.75,12.75,7.25s7.75,3.723,9.25,5.111
		s4.25,1.889,4.25,1.889"/>
	<path fill="#FF0124" d="M1183.568,187.757c0,0-5.25,22.25-8,26.5"/>
	<path fill="#FF0124" d="M1185.818,193.757c0,0-3.25,19.25-8.5,20.5"/>
	<path fill="#FF0124" d="M1185.818,204.757c0,0-4.5,16.25-6.25,18.5"/>
	<path fill="#B70006" d="M1022.568,197.757c0.75,0.5,17.5,26.5,16.5,31.5s14.25-7.25,18-6s-17.25,2.584-17.25,2.584"/>
	<path fill="#840007" d="M1159.651,223.257l8.417-2.75l5.875-6.25c0,0,2.125,1.75,1.625,3.5s0.5,9,0,9.75s0,5.5,0,5.5l-7.887,1.395
		l-3.613-1.228l-0.75-3.917l-3.667-0.5l1.917-2.916l-1.917-1.512"/>
	<path fill="#B70006" d="M1042.068,294.091c0,0-0.158-0.777-0.25-2.006c-0.215-2.856-0.071-8.157,3.25-11.828
		c0.362-0.4,0.72-0.782,1.072-1.146c4.27-4.414,7.754-6.221,8.678-6.284c1-0.069,7.75-2.069,8.5-2.069s14.917-2,14.917-2
		l11.366-1.75c0,0-27.75,7.668-28.517,7.209s-9.767,2.291-9.767,2.291l-7.5,8.166"/>
	<path fill="#B70006" d="M1040.043,284.007c0,0-0.394-4.66,0.157-7.988c0.26-1.574,0.73-2.85,1.554-3.192
		c2.564-1.069,0.814-2.569,7.314-3.319s8.448-1.25,8.448-1.25s-10.448,2.5-11.448,3.5s-4.225,6.21-5.192,7.354s0,2.646,0,2.646v2.25
		"/>
	<path fill="#B70006" d="M1141.068,261.507c0,0,0.298,0.275,0.794,0.73c2.34,2.148,9.087,8.313,9.706,8.52
		c0.75,0.25,1.25,0,1.25,5.375s-1,13.625-1.75,16.375s-4.75,12.5-5.25,13.5s-2.25,4.285-2.25,4.285s4.25-6.535,5.25-8.035
		s3-4.083,3-4.083s2.75-8.667,2.75-9.917s-1.5-3.5,0-4.25s3.75,0.666,3.75,0.666l1.333-6.666v-5.181l3.61-3.249l-0.333-1.32
		l-3.277-5.25l-5.583-1.5h-9H1141.068z"/>
	<path fill="#B70006" d="M1126.568,272.826h4.5l1.75-3.069l2.25-2.75c0,0,0.5,2.069,1.25,2.91c0.75,0.84,4.75,2.909,4.75,2.909
		l3,1.39h1l-6.25-8.459l-2-4.25l-1-0.75"/>
	<path fill="#B70006" d="M1150.318,326.507c0,0-28,31.75-45.5,32.75"/>
	<path fill="#B70006" d="M1054.068,305.757c0,0,13-0.75,19.75-3.5"/>
	<path fill="#B70006" d="M1108.068,370.507c0,0,21.846-9.13,26.25-15.25s21.924-16.432,22.086-15.023"/>
	<path fill="#515C68" d="M1099.068,399.007c0,0,28.336-20,33.168-21.5s2.082-1.5,4.832-1.5"/>
	<path fill="#515C68" d="M1108.068,385.507c3-2,14.667-9.167,16.75-11.75"/>
	<path fill="#515C68" d="M1123.818,376.007c0,0,11.5-4.25,13.25-5.5"/>
	<path fill="#515C68" d="M1151.818,367.257c0,0,8.083-8.25,10.25-8s-1.244,3.997-1.244,3.997"/>
	<polyline fill="#515C68" points="1157.304,367.257 1162.789,363.254 1163.26,365.255 	"/>
	<path fill="#515C68" d="M1154.568,376.007l5.713-6.75c0,0-0.787,2,0,3.375"/>
	<path fill="#515C68" d="M1086.568,407.507c-1,2-4,9.75-5.5,12.25s-12.25,6.5-13,7.25s-8.5,3.5-8.5,3.5s12.5-6.334,13.5-7.667
		s7-5.333,7-6.083s5.5-9.25,5.5-9.25"/>
	<path fill="#515C68" d="M1056.068,396.507c0,0,33.838,1.5,35.044,2.5s-9.044,7-9.044,7l-1-2l1.75-1l-1-4"/>
	<path fill="#515C68" d="M1090.986,409.507l0.803,3.806l0.779,3.694c0,0,0,0.984,0,2c0,0.656,0,1.325,0,1.75
		c0,1.084-3.25,2.083-3.25,2.083v-2.083"/>
	<path fill="#515C68" d="M1099.068,402.507c0,0,18.138-3.64,20.678-4.208s4.072-1.792,4.072-1.792l-4.5-1.228l-6.75,3.614"/>
	<path fill="#BB7B5A" d="M1040.526,446.757c0,0,0.542,14.25,1.542,18.5s1.75,10.25,3.75,18.5s0.75,15.5,3,19.25
		s-1.25,2.75-1.25,2.75s-4.25-4.5-4.5-6.5s-2.542-10.5-2.542-10.5l-1.708-12.439v-15.811l-3.25-10"/>
	<path fill="#A5806E" d="M1040.526,518.757c-0.208,1.75,8.542,19.75,14.292,20s-4.25,14.75-14.5-18.25"/>
	<path fill="#F69671" d="M1105.318,495.527c0,0-6,5.479-1.5,15.479"/>
	<path fill="#F69671" d="M1124.568,497.507c0,0,4.5,15.75-3.5,18.5S1132.318,509.007,1124.568,497.507z"/>
	<path fill="#F69671" d="M1119.08,520.507c0,0,1.488,3.25,1.238,7s4.5-3.5,4.5-3.5l1.629-5.25l-4.629,4.913l-2.738-3.913"/>
	<path fill="#CB6E3E" d="M1017.737,257.007c0,0,11.853,17.515,14.831,27s-5-17-5-17L1017.737,257.007z"/>
</g>
<g id="Layer_3">
</g>
</svg>
