<?xml version="1.0" encoding="utf-8"?>
<!-- Generator: Adobe Illustrator 15.0.2, SVG Export Plug-In . SVG Version: 6.00 Build 0)  -->
<!DOCTYPE svg PUBLIC "-//W3C//DTD SVG 1.1//EN" "http://www.w3.org/Graphics/SVG/1.1/DTD/svg11.dtd">
<svg version="1.1" id="Layer_1" xmlns="http://www.w3.org/2000/svg" xmlns:xlink="http://www.w3.org/1999/xlink" x="0px" y="0px"
	 width="1380.281px" height="720px" viewBox="0 0 1380.281 720" enable-background="new 0 0 1380.281 720" xml:space="preserve">
<g id="Layer_2_1_">
</g>
<path fill="none" stroke="#FF9C1B" stroke-width="40" stroke-miterlimit="10" d="M971.525,358.678
	c0,151.322-122.668,273.995-273.99,273.995c-151.322,0-273.989-122.673-273.989-273.995S546.213,84.688,697.535,84.688
	C848.857,84.688,971.525,207.355,971.525,358.678z"/>
<path fill="#2F29C3" d="M462.773,347.215c0,0,38.869,36.22,142.228-8.834c0,0,3.534,11.119,7.067,11.302
	c3.533,0.184,35.338,35.519,35.338,35.519s-66.257,46.82-96.292,47.704c4.493-0.425-44.17-4.417-44.17-12.367
	c0-7.951-48.588-22.969-48.588-22.969l-15.017-4.417l-7.069-13.251C436.271,379.901,463.657,358.7,462.773,347.215z"/>
<path fill="#2F29C3" d="M117.646,327.498c0,0-7.067,30.035-14.136,33.569c0,0-7.95,42.403-5.3,57.421c0,0,41.521,15.9,88.341-11.483
	l25.619,16.075c0,0,47.703,6.358,52.121,0c4.416-6.358,9.717-9.008,9.717-9.008s-1.767-48.588-4.417-53.889
	c-2.65-5.3-9.718-36.219-6.185-44.17C266.94,308.064,117.646,327.498,117.646,327.498z"/>
<path fill="#202362" d="M151.214,482.979c0,0,18.552,15.017,44.171-6.185c0,0,15.018,100.707,19.436,120.143
	c4.417,19.435-20.319,8.834-20.319,8.834s-28.269-62.487-26.502-63.046c1.767-0.56-20.317-29.712-16.785-38.546
	C154.748,495.346,151.214,482.979,151.214,482.979z"/>
<path fill="#202362" d="M210.402,482.094c0,0,34.453,24.735,38.869-22.969c0,0,21.203,13.252,18.553,58.305
	c0,0,6.184,35.336,8.834,35.336c2.649,0-4.417,24.735-33.129,12.367l0.258-9.717c0,0-12.184-30.035-18.366-36.22
	C219.237,513.013,210.402,482.094,210.402,482.094z"/>
<path fill="#202362" d="M623.552,530.08c0,0,26.505-4.418,6.185-31.803h11.484c0,0,35.336,30.919,0,41.521l-17.669-4.742"/>
<path fill="#202362" d="M493.692,590.152c0,0,22.085,3.532,26.502-10.602l16.785,48.587h-30.035l-4.417-24.294l-4.417-2.856
	L493.692,590.152z"/>
<path fill="#FFFFFF" d="M442.75,186.142l18.846-15.313c0,0,25.911,127.21,42.402-15.313c0,0,21.203-9.422,35.336,0
	c0,0-18.846,29.445,0,40.047c18.847,10.602,38.873,49.472,41.228,60.072c2.354,10.602,15.313,67.139,24.735,81.273
	c9.422,14.134-109.542,47.116-142.523,8.246c6.438,5.943,15.313-76.562,10.601-78.918c-4.712-2.354-20.022-25.912-20.022-25.912
	L442.75,186.142z"/>
<path fill="#FFFFFF" d="M181.84,200.877c0,0-37.693-1.18-50.65,29.447c-12.953,30.625-14.135,40.046-14.135,40.046l-9.42,14.135
	c0,0,7.43,4.134,16.809,8.647c11.871,5.714,26.857,12.043,33.839,11.377"/>
<path fill="#FFFFFF" d="M246.622,213.831v12.958c-19.317,47.218-34.476,51.41-45.259,41.987c-5.205-1.244-9.895-4.387-12.332-9.352
	c-4.656-9.48-8.592-19.343-9.698-29.736l-54.89,63.464l-8.566,31.402c65.963,43.58,145.346,0,145.346,0v-9.54l-0.02-0.007
	c12.111-2.262,20.051-10.43,20.051-10.43l-5.186-17.717C297.269,238.567,246.622,213.831,246.622,213.831z"/>
<path fill="#E5E165" d="M540.513,623.133c0,0-0.648,15.312-16.226,0c0,0-13.222-3.533-16.755,0
	c-3.534,3.532-16.491,28.269-24.736,27.09l-5.888,14.136c0,0,43.58,9.422,51.825,0c8.246-9.424,17.668-3.535,17.668-3.535
	L540.513,623.133z"/>
<path fill="#E5E165" d="M683.036,552.461c-5.89-9.426-11.779-41.228-11.779-41.228s-9.139-21.224-29.26-14.909
	c3.935,2.728,6.478,6.851,7.601,11.396c1.786,4.603,1.965,9.869,0.59,14.626c-0.465,5.52-2.893,10.831-7.26,14.306
	c-1.441,1.746-3.199,3.255-5.307,4.384c3.412,9.951,22.811,64.969,32.457,58.538C680.679,592.507,688.927,561.885,683.036,552.461z"
	/>
<path fill="#E5E165" d="M190.525,604.003c0,0,12.809,4.418,23.41-2.208c0,0,0,32.243,3.534,42.403s-25.619,18.11-26.944,4.417
	C189.201,634.923,199.36,615.488,190.525,604.003z"/>
<path fill="#E5E165" d="M244.414,563.808c0,0,5.741,15.019,34.894-8.392c0,0,18.552,49.471,16.785,60.514
	c-1.767,11.042-35.337,36.219-39.312,8.834c-3.976-27.386,0.441-32.686-7.951-38.869
	C248.83,585.895,240.438,566.901,244.414,563.808z"/>
<path fill="#685C64" d="M137.963,421.139c0,0,17.227,44.612,13.692,61.84c0,0,28.269,21.2,38.87,2.207l-3.533-28.07l-6.625-50.995"
	/>
<path fill="#685C64" d="M193.177,422.464c0,0,7.95,43.729,18.109,53.887l2.649,12.368c0,0,28.711,4.858,36.22-8.393
	c0,0-0.884-57.421-3.533-64.487"/>
<path fill="#3D3D3D" d="M190.525,421.139l47.262,231.583c0,0,7.068,6.052,18.552-7.198c0,0,22.087,5.3,0,19.435
	c-22.085,14.136-40.636,0-38.869-20.76c1.768-20.76-31.632-217.652-31.632-217.652"/>
<path fill="#3D3D3D" d="M489.813,300.188l-172.08,235.993c0,0-20.023,18.077-34.328,8.802c-14.303-9.276-1.431-24.976,0-24.976
	s10.729,2.141,10.012,12.132c0,0,7.152,6.422,14.307-7.85l170.211-224.777"/>
<path fill="#83788C" d="M122.062,293.045c0,0,7.952,73.322,12.368,79.506c4.416,6.186,35.336,49.471,35.336,49.471l4.417,20.319
	l12.368,15.017v9.719l7.95-6.184c0,0,0-22.969,0-25.619s11.484,21.202,11.484,21.202s0.884-28.271-7.95-35.337
	s-32.687-29.152-40.637-75.973c-7.951-46.821,0-43.285,0-43.285"/>
<path fill="#83788C" d="M229.838,307.18c0,0-25.619,52.121-27.386,60.955s-16.785,16.785-16.785,16.785l-11.364,8.188l11.085,15.646
	c0,0,4.697-22.952,12.647,12.385c0,0,9.766-14.134,7.975-24.735s33.545-36.22,33.545-36.22s11.484-24.735,7.951-29.152l8.833-23.852
	"/>
<path fill="#685C64" d="M459.829,392.857c0,0-4.121,54.183,2.356,63.017c0,0,0.59,30.034,3.533,34.158
	c2.943,4.122-2.943,35.337,0,41.226c2.943,5.89,30.036,61.249,30.036,61.249s25.911-5.301,25.324-12.368
	c-0.589-7.067-6.479-1.767-6.479-19.435c0-17.669-1.766-41.225-15.902-60.66c0,0,5.301-21.789,5.301-32.391
	c0-10.601,10.016-40.637,14.726-43.581"/>
<path fill="#685C64" d="M539.924,427.605c0,0,12.367,81.272,11.777,84.806c-0.587,3.534,8.247,20.612,24.148,21.79
	c15.9,1.18,57.127-6.477,57.127-6.477s23.559-14.134-4.711-29.447l-5.891,0.589c0,0-3.533-10.602-26.502-6.184l5.3-84.513"/>
<path fill="#685C64" d="M442.16,187.91c0,0-18.845,6.477-17.078,50.646c0,0,9.422,37.103-2.945,51.827
	c0,0-5.303,15.312-6.479,13.545c-1.176-1.768-9.423,20.022-7.065,25.912c2.356,5.891-4.123,35.925-9.424,40.048
	c0,0-5.889,15.313-7.654,17.08c-1.769,1.768-14.136,21.201-14.136,21.201v15.313c0,0,6.478,5.301,7.656,0
	c1.179-5.299,0.589-15.313,0.589-15.313l10.012-9.422l39.459-46.231l12.957-38.577c0,0-1.177-10.602,0-17.078
	c1.177-6.478,1.765-30.035,2.943-34.16c1.179-4.119,7.542-14.721,7.542-14.721s-16.964-55.951-15.196-62.429"/>
<path fill="#685C64" d="M397.402,428.783c0,0,0.885,11.777-4.123,11.777c-5.006,0-7.363-6.771-7.656-7.655s1.176-3.827,2.65-4.122
	c1.472-0.295,4.415,1.472,4.711,2.355C393.279,432.021,397.402,428.783,397.402,428.783z"/>
<path fill="#685C64" d="M387.096,417.593c0,0,0.021-7.067,4.427-2.65c4.407,4.418,8.528,6.479,10.001,6.479
	c1.474,0,2.65-1.18,2.65-1.18h3.828l-3.533,8.509C404.469,428.751,394.572,430.516,387.096,417.593z"/>
<path fill="#685C64" d="M400.641,408.17c0,0-9.891-3.828-3.179,4.122s12.308,6.479,12.308,6.479s4.416-2.355,5.301-18.551
	l-7.068,9.329v1.86C408.002,411.409,403.584,412.883,400.641,408.17z"/>
<path fill="#685C64" d="M538.158,193.799c0,0-20.907-26.799,6.479-42.699c0,0,27.09,4.124,29.152,55.067
	c0,0,7.655,31.506,7.951,34.452c0.295,2.944,5.594,15.02-9.129,19.139c0,0-33.57,17.375-49.176,15.609
	c0,0-30.917,4.121-31.508,5.005c-0.59,0.883-2.357,8.539-4.124,9.716c-1.767,1.18-4.71,4.123-4.71,5.008
	c0,0.882,7.066,6.772,10.6,6.184l-2.061,4.416c0,0,1.179,3.534-3.239,4.417l-5.3,0.884c0,0,2.945,4.713,0,6.184
	c-1.931,0.966-6.137,0.667-8.807,0.345c-1.404-0.169-2.385-0.345-2.385-0.345l-5.3-6.184v6.84c0,0,11.483,0.229,6.479,4.644H461.01
	l-2.474-2.942v-18.258l1.883-3.535l2.062-4.121l2.648-4.122l13.253-18.847c0,0,69.79-33.275,70.083-38.869
	c0,0-10.012-17.373-7.362-30.92L538.158,193.799z"/>
<path fill="#62564F" d="M469.398,163.909c-1.309,2.074-3.048,3.554-4.928,4.606c-5.727,3.213-12.74,2.461-12.74,2.461l-2.207-7.067
	h-4.418l-2.355-3.976h-2.062c0.441-3.533-2.649-3.533-2.649-3.533h-6.321l-0.747-5.072c3.092-10.372-4.416-14.363-4.416-14.363
	c-16.345-5.3-12.811-25.618-12.811-25.618l25.178-9.718l19.614,11.043l28.531,4.418c0,0,7.951,35.334,18.993,40.193
	c11.042,4.858-14.576,70.23-14.576,70.23l-32.948-21.35l2.586-25.912"/>
<path fill="#83788C" d="M185.838,213.831c0,0-5.421,25.334,2.038,38.893c7.458,13.56,15.142,17.35,15.142,17.35h7.826l6.698,1.028
	c0,0,11.017-16.084,17.62-20.259c6.602-4.177,5.719-15.66,5.719-15.66l-2.209-21.352"/>
<path fill="#363E3D" d="M407.12,101.629c0,0,4.858,14.576,30.476,5.3l2.209,9.276c0,0,16.574,7.068,21.317,3.975
	c0,0,14.02,7.308,20.644,0.784c6.627-6.525,10.16-3.874,9.719-2.551c-0.441,1.326,2.722-15.017,0.036-16.784
	c-2.687-1.766,13.401,11.847,3.591,40.597c-9.811,28.751-8.928,49.952-10.252,60.111c-1.325,10.159-0.96,20.261-0.235,20.731
	c0.726,0.471,6.86,8.421,8.627,9.747c1.768,1.324,8.834,3.974,8.834,3.974s-23.409-18.993-4.416-37.102
	c18.993-18.11,34.894-29.152,32.686-37.986c-2.21-8.835,5.741-12.81-6.626-21.202c-12.368-8.393-4.859-12.81-4.859-17.226
	c0-4.418,7.952,8.833,9.275,11.042c1.326,2.208-12.367-33.129-18.551-35.778c-6.183-2.65-12.367-5.742-15.017-5.742
	c-2.651,0-33.128-41.52-65.372-15.9l-7.951,7.509l-3.535,9.276L407.12,101.629z"/>
<path fill="#A8A882" d="M185.838,218.076c0,0-0.934-57.982,29.484-50.916c30.416,7.067,38.447,37.544,25.598,61.839"/>
<path fill="#CCCCA2" d="M181.84,224.14c0,0,47.988-79.703,59.08,7.509C240.92,231.648,197.889,237.391,181.84,224.14z"/>
<path fill="#DBDBDB" d="M469.252,335.141c0,0,30.625,22.97,58.306,4.124c27.68-18.844,35.335-20.611,35.335-20.611l12.957,2.943
	c0,0-26.502,14.725-30.037,14.725C542.279,336.321,510.478,369.889,469.252,335.141z"/>
<path fill="#DBDBDB" d="M475.73,330.43c0,0,12.368,6.479,30.625-4.709c18.256-11.191,28.859-12.37,31.214-11.781
	c2.354,0.59,25.912-17.668,24.146-24.736c-1.767-7.065-5.299,14.726-23.557,18.26c-18.256,3.533-42.991,18.844-42.991,18.844
	L475.73,330.43z"/>
<path fill="#DBDBDB" d="M496.343,310.051c0,0,30.036-4.355,40.637-30.858"/>
<path fill="#DBDBDB" d="M458.063,182.019c0,0,2.356,27.093,0,40.637"/>
<path fill="#DBDBDB" d="M453.939,186.142c0,0,7.656,20.612,0,30.037"/>
<path fill="#DBDBDB" d="M518.77,182.019c0,0-0.048,14.135,11.143,20.318S518.816,207.344,518.77,182.019z"/>
<path fill="#DBDBDB" d="M525.912,174.362c0,0-0.904,22.381,7.144,26.798C541.103,205.577,521.324,205.576,525.912,174.362z"/>
<path fill="#DBDBDB" d="M161.815,279.203c0,0,18.257-48.879,12.958-55.357"/>
<path fill="#DBDBDB" d="M142.381,230.324c0,0,19.435,28.269,15.901,35.925C154.748,273.903,171.827,263.303,142.381,230.324z"/>
<path fill="#DBDBDB" d="M138.846,268.62c0,0,14.135,20.008,19.437,18.241"/>
<path fill="#DBDBDB" d="M238.967,246.814c0,0,2.945,40.188-2.355,48.656"/>
<path fill="#DBDBDB" d="M218.354,298.639c0,0,1.179,17.082-27.68,14.725c0,0-19.059,21.79-21.898,24.146"/>
<path fill="#DBDBDB" d="M161.815,337.509c0,0,20.024,14.725,50.062-5.888C241.912,311.008,183.018,366.367,161.815,337.509z"/>
<path fill="#DBDBDB" d="M271.947,260.359c0,0-24.283,31.212-32.165,26.502C231.899,282.15,253.102,300.996,271.947,260.359z"/>
<path fill="#DBDBDB" d="M250.155,223.846c0,0,14.726,7.068,21.792,22.969"/>
<path fill="#465769" d="M181.25,230.324l12.317,40.818c0,0-31.752,11.597-12.317-43.764"/>
<path fill="#465769" d="M193.567,271.143l4.174,12.775c0,0,1.715,1.178-2.087,7.653c-3.804,6.48-11.395-22.951-11.395-22.951"/>
<path fill="#465769" d="M197.741,283.918l14.136-12.775l20.611-16.083c0,0-4.123,26.5-17.373,28.858
	c-13.252,2.354-16.986,8.585-16.986,8.585l-2.475-0.932"/>
<path fill="#202362" d="M496.343,363.116h12.481c0,0,6.298,12.368,0,21.202C502.527,393.152,514.01,371.067,496.343,363.116z"/>
<path fill="#202362" d="M511.623,400.22c0,0,0.918,4.983,10.929-13.852s15.018-23.252,17.372-23.252"/>
<path fill="#202362" d="M525.912,413.471c0,0,24.319-47.703,22.552-50.354"/>
<path fill="#202362" d="M568.781,356.49c0,0-6.184,51.68,0,51.68"/>
<path fill="#202362" d="M591.052,352.517c0,0,9.533,45.937,24.55,35.778C630.621,378.135,592.119,423.188,591.052,352.517z"/>
<polyline fill="#202362" points="600.585,346.333 605.064,374.742 609.419,374.742 "/>
<path fill="#202362" d="M459.111,363.116c0,0-2.522,26.796-14.006,29.741"/>
<polyline fill="#202362" points="246.808,350.467 250.155,368.206 239.555,360.184 "/>
<path fill="#202362" d="M218.36,385.655l14.128-17.449c0,0-7.055,41.448-14.128,44.099c-7.074,2.65,7.064-26.649,7.064-26.649
	H218.36z"/>
<polygon fill="#202362" points="174.303,385.361 198.129,369.459 212.429,342.81 191.027,355.768 174.303,373.506 "/>
<polyline fill="#202362" points="148.563,395.962 142.381,385.655 133.547,400.89 "/>
<path fill="#202362" d="M122.062,346.035c0,0,0.884,20.332-7.95,34.025c-8.833,13.692,0-21.495,0-21.495L122.062,346.035z"/>
</svg>
